%TF.GenerationSoftware,KiCad,Pcbnew,4.0.7-e2-6376~58~ubuntu16.04.1*%
%TF.CreationDate,2017-11-12T16:16:19-05:00*%
%TF.ProjectId,AH1892Breakout,414831383932427265616B6F75742E6B,rev?*%
%TF.FileFunction,Legend,Bot*%
%FSLAX46Y46*%
G04 Gerber Fmt 4.6, Leading zero omitted, Abs format (unit mm)*
G04 Created by KiCad (PCBNEW 4.0.7-e2-6376~58~ubuntu16.04.1) date Sun Nov 12 16:16:19 2017*
%MOMM*%
%LPD*%
G01*
G04 APERTURE LIST*
%ADD10C,0.127000*%
%ADD11C,0.120000*%
%ADD12C,0.150000*%
G04 APERTURE END LIST*
D10*
X149706000Y-95521429D02*
X149991714Y-95521429D01*
X149991714Y-94921429D01*
X149534571Y-95492857D02*
X149448857Y-95521429D01*
X149306000Y-95521429D01*
X149248857Y-95492857D01*
X149220286Y-95464286D01*
X149191714Y-95407143D01*
X149191714Y-95350000D01*
X149220286Y-95292857D01*
X149248857Y-95264286D01*
X149306000Y-95235714D01*
X149420286Y-95207143D01*
X149477428Y-95178571D01*
X149506000Y-95150000D01*
X149534571Y-95092857D01*
X149534571Y-95035714D01*
X149506000Y-94978571D01*
X149477428Y-94950000D01*
X149420286Y-94921429D01*
X149277428Y-94921429D01*
X149191714Y-94950000D01*
X150063143Y-98950429D02*
X150063143Y-98350429D01*
X150063143Y-98636143D02*
X149720286Y-98636143D01*
X149720286Y-98950429D02*
X149720286Y-98350429D01*
X149463143Y-98921857D02*
X149377429Y-98950429D01*
X149234572Y-98950429D01*
X149177429Y-98921857D01*
X149148858Y-98893286D01*
X149120286Y-98836143D01*
X149120286Y-98779000D01*
X149148858Y-98721857D01*
X149177429Y-98693286D01*
X149234572Y-98664714D01*
X149348858Y-98636143D01*
X149406000Y-98607571D01*
X149434572Y-98579000D01*
X149463143Y-98521857D01*
X149463143Y-98464714D01*
X149434572Y-98407571D01*
X149406000Y-98379000D01*
X149348858Y-98350429D01*
X149206000Y-98350429D01*
X149120286Y-98379000D01*
D11*
X150333000Y-91830000D02*
X149133000Y-91830000D01*
X149133000Y-93590000D02*
X150333000Y-93590000D01*
X143912000Y-113136000D02*
X143912000Y-113961000D01*
X143912000Y-113961000D02*
X156062000Y-113961000D01*
X156062000Y-113961000D02*
X156062000Y-113136000D01*
X143912000Y-109586000D02*
X143912000Y-108761000D01*
X143912000Y-108761000D02*
X146212000Y-108761000D01*
X156062000Y-109586000D02*
X156062000Y-108761000D01*
X156062000Y-108761000D02*
X153762000Y-108761000D01*
X146212000Y-108761000D02*
X146212000Y-106361000D01*
X148638000Y-96320000D02*
X150638000Y-96320000D01*
X150638000Y-94180000D02*
X148638000Y-94180000D01*
X150638000Y-97609000D02*
X148638000Y-97609000D01*
X148638000Y-99749000D02*
X150638000Y-99749000D01*
D12*
X149899666Y-93067143D02*
X149947285Y-93114762D01*
X150090142Y-93162381D01*
X150185380Y-93162381D01*
X150328238Y-93114762D01*
X150423476Y-93019524D01*
X150471095Y-92924286D01*
X150518714Y-92733810D01*
X150518714Y-92590952D01*
X150471095Y-92400476D01*
X150423476Y-92305238D01*
X150328238Y-92210000D01*
X150185380Y-92162381D01*
X150090142Y-92162381D01*
X149947285Y-92210000D01*
X149899666Y-92257619D01*
X148947285Y-93162381D02*
X149518714Y-93162381D01*
X149233000Y-93162381D02*
X149233000Y-92162381D01*
X149328238Y-92305238D01*
X149423476Y-92400476D01*
X149518714Y-92448095D01*
X150320333Y-114313381D02*
X150320333Y-115027667D01*
X150367953Y-115170524D01*
X150463191Y-115265762D01*
X150606048Y-115313381D01*
X150701286Y-115313381D01*
X149320333Y-115313381D02*
X149891762Y-115313381D01*
X149606048Y-115313381D02*
X149606048Y-114313381D01*
X149701286Y-114456238D01*
X149796524Y-114551476D01*
X149891762Y-114599095D01*
M02*
