%TF.GenerationSoftware,KiCad,Pcbnew,4.0.7-e2-6376~58~ubuntu16.04.1*%
%TF.CreationDate,2017-11-12T16:16:19-05:00*%
%TF.ProjectId,AH1892Breakout,414831383932427265616B6F75742E6B,rev?*%
%TF.FileFunction,Copper,L1,Top,Signal*%
%FSLAX46Y46*%
G04 Gerber Fmt 4.6, Leading zero omitted, Abs format (unit mm)*
G04 Created by KiCad (PCBNEW 4.0.7-e2-6376~58~ubuntu16.04.1) date Sun Nov 12 16:16:19 2017*
%MOMM*%
%LPD*%
G01*
G04 APERTURE LIST*
%ADD10C,0.127000*%
%ADD11R,1.500000X1.300000*%
%ADD12R,1.000000X5.500000*%
%ADD13R,1.600000X3.000000*%
%ADD14R,2.000000X1.700000*%
%ADD15R,0.300000X0.500000*%
%ADD16C,4.064000*%
%ADD17C,0.685800*%
%ADD18C,0.200000*%
%ADD19C,0.254000*%
G04 APERTURE END LIST*
D10*
D11*
X148383000Y-92710000D03*
X151083000Y-92710000D03*
D12*
X146987000Y-109111000D03*
X148987000Y-109111000D03*
X150987000Y-109111000D03*
X152987000Y-109111000D03*
D13*
X144587000Y-111361000D03*
X155387000Y-111361000D03*
D14*
X151638000Y-95250000D03*
X147638000Y-95250000D03*
X147638000Y-98679000D03*
X151638000Y-98679000D03*
D15*
X149860000Y-90770000D03*
X149360000Y-90770000D03*
X150360000Y-90770000D03*
X149360000Y-89570000D03*
X150360000Y-89570000D03*
D16*
X149860000Y-102616000D03*
D17*
X154432000Y-103124000D03*
X149733000Y-91821000D03*
X151765000Y-89662000D03*
X145923000Y-102870000D03*
X153289000Y-91694000D03*
D18*
X149225000Y-91313000D02*
X149225000Y-90805000D01*
X149733000Y-91821000D02*
X149225000Y-91313000D01*
X151673000Y-89570000D02*
X151765000Y-89662000D01*
X150360000Y-89570000D02*
X151673000Y-89570000D01*
D19*
X145923000Y-92603000D02*
X145923000Y-102870000D01*
X149360000Y-89570000D02*
X148956000Y-89570000D01*
X148956000Y-89570000D02*
X145923000Y-92603000D01*
D18*
X153289000Y-91694000D02*
X153289000Y-91209067D01*
X153289000Y-91209067D02*
X152849933Y-90770000D01*
X152849933Y-90770000D02*
X150364001Y-90770000D01*
D19*
G36*
X148821536Y-90520000D02*
X148821536Y-90559685D01*
X148780614Y-90620929D01*
X148744000Y-90805000D01*
X148744000Y-91313000D01*
X148762989Y-91408464D01*
X148780614Y-91497071D01*
X148884882Y-91653118D01*
X149009138Y-91777374D01*
X149008975Y-91964361D01*
X149118950Y-92230521D01*
X149322408Y-92434335D01*
X149588376Y-92544774D01*
X149876361Y-92545025D01*
X150142521Y-92435050D01*
X150346335Y-92231592D01*
X150456774Y-91965624D01*
X150457025Y-91677639D01*
X150347050Y-91411479D01*
X150344040Y-91408464D01*
X150510000Y-91408464D01*
X150651190Y-91381897D01*
X150780865Y-91298454D01*
X150813289Y-91251000D01*
X152650697Y-91251000D01*
X152679388Y-91279691D01*
X152675665Y-91283408D01*
X152565226Y-91549376D01*
X152564975Y-91837361D01*
X152674950Y-92103521D01*
X152878408Y-92307335D01*
X153144376Y-92417774D01*
X153432361Y-92418025D01*
X153698521Y-92308050D01*
X153902335Y-92104592D01*
X153962100Y-91960661D01*
X153962100Y-99060000D01*
X153967679Y-99088045D01*
X153966808Y-99116627D01*
X153980607Y-99153038D01*
X153988202Y-99191222D01*
X154004087Y-99214995D01*
X154014221Y-99241737D01*
X157137100Y-104238343D01*
X157137100Y-115227100D01*
X142582900Y-115227100D01*
X142582900Y-104238343D01*
X145415000Y-99706983D01*
X145415000Y-102354257D01*
X145309665Y-102459408D01*
X145199226Y-102725376D01*
X145198975Y-103013361D01*
X145308950Y-103279521D01*
X145512408Y-103483335D01*
X145778376Y-103593774D01*
X146066361Y-103594025D01*
X146332521Y-103484050D01*
X146536335Y-103280592D01*
X146613868Y-103093870D01*
X147446583Y-103093870D01*
X147813166Y-103981069D01*
X148491361Y-104660449D01*
X149377919Y-105028580D01*
X150337870Y-105029417D01*
X151225069Y-104662834D01*
X151904449Y-103984639D01*
X152272580Y-103098081D01*
X152273417Y-102138130D01*
X151906834Y-101250931D01*
X151228639Y-100571551D01*
X150342081Y-100203420D01*
X149382130Y-100202583D01*
X148494931Y-100569166D01*
X147815551Y-101247361D01*
X147447420Y-102133919D01*
X147446583Y-103093870D01*
X146613868Y-103093870D01*
X146646774Y-103014624D01*
X146647025Y-102726639D01*
X146537050Y-102460479D01*
X146431000Y-102354243D01*
X146431000Y-92813420D01*
X148846196Y-90398224D01*
X148821536Y-90520000D01*
X148821536Y-90520000D01*
G37*
X148821536Y-90520000D02*
X148821536Y-90559685D01*
X148780614Y-90620929D01*
X148744000Y-90805000D01*
X148744000Y-91313000D01*
X148762989Y-91408464D01*
X148780614Y-91497071D01*
X148884882Y-91653118D01*
X149009138Y-91777374D01*
X149008975Y-91964361D01*
X149118950Y-92230521D01*
X149322408Y-92434335D01*
X149588376Y-92544774D01*
X149876361Y-92545025D01*
X150142521Y-92435050D01*
X150346335Y-92231592D01*
X150456774Y-91965624D01*
X150457025Y-91677639D01*
X150347050Y-91411479D01*
X150344040Y-91408464D01*
X150510000Y-91408464D01*
X150651190Y-91381897D01*
X150780865Y-91298454D01*
X150813289Y-91251000D01*
X152650697Y-91251000D01*
X152679388Y-91279691D01*
X152675665Y-91283408D01*
X152565226Y-91549376D01*
X152564975Y-91837361D01*
X152674950Y-92103521D01*
X152878408Y-92307335D01*
X153144376Y-92417774D01*
X153432361Y-92418025D01*
X153698521Y-92308050D01*
X153902335Y-92104592D01*
X153962100Y-91960661D01*
X153962100Y-99060000D01*
X153967679Y-99088045D01*
X153966808Y-99116627D01*
X153980607Y-99153038D01*
X153988202Y-99191222D01*
X154004087Y-99214995D01*
X154014221Y-99241737D01*
X157137100Y-104238343D01*
X157137100Y-115227100D01*
X142582900Y-115227100D01*
X142582900Y-104238343D01*
X145415000Y-99706983D01*
X145415000Y-102354257D01*
X145309665Y-102459408D01*
X145199226Y-102725376D01*
X145198975Y-103013361D01*
X145308950Y-103279521D01*
X145512408Y-103483335D01*
X145778376Y-103593774D01*
X146066361Y-103594025D01*
X146332521Y-103484050D01*
X146536335Y-103280592D01*
X146613868Y-103093870D01*
X147446583Y-103093870D01*
X147813166Y-103981069D01*
X148491361Y-104660449D01*
X149377919Y-105028580D01*
X150337870Y-105029417D01*
X151225069Y-104662834D01*
X151904449Y-103984639D01*
X152272580Y-103098081D01*
X152273417Y-102138130D01*
X151906834Y-101250931D01*
X151228639Y-100571551D01*
X150342081Y-100203420D01*
X149382130Y-100202583D01*
X148494931Y-100569166D01*
X147815551Y-101247361D01*
X147447420Y-102133919D01*
X147446583Y-103093870D01*
X146613868Y-103093870D01*
X146646774Y-103014624D01*
X146647025Y-102726639D01*
X146537050Y-102460479D01*
X146431000Y-102354243D01*
X146431000Y-92813420D01*
X148846196Y-90398224D01*
X148821536Y-90520000D01*
G36*
X153047197Y-90334429D02*
X153034004Y-90325614D01*
X153025890Y-90324000D01*
X152849933Y-90289000D01*
X150939025Y-90289000D01*
X151048327Y-90179699D01*
X151145000Y-89946310D01*
X151145000Y-89853750D01*
X150986250Y-89695000D01*
X150435000Y-89695000D01*
X150435000Y-89717000D01*
X150285000Y-89717000D01*
X150285000Y-89695000D01*
X150213000Y-89695000D01*
X150213000Y-89445000D01*
X150285000Y-89445000D01*
X150285000Y-89423000D01*
X150435000Y-89423000D01*
X150435000Y-89445000D01*
X150986250Y-89445000D01*
X151145000Y-89286250D01*
X151145000Y-89242900D01*
X152228550Y-89242900D01*
X153047197Y-90334429D01*
X153047197Y-90334429D01*
G37*
X153047197Y-90334429D02*
X153034004Y-90325614D01*
X153025890Y-90324000D01*
X152849933Y-90289000D01*
X150939025Y-90289000D01*
X151048327Y-90179699D01*
X151145000Y-89946310D01*
X151145000Y-89853750D01*
X150986250Y-89695000D01*
X150435000Y-89695000D01*
X150435000Y-89717000D01*
X150285000Y-89717000D01*
X150285000Y-89695000D01*
X150213000Y-89695000D01*
X150213000Y-89445000D01*
X150285000Y-89445000D01*
X150285000Y-89423000D01*
X150435000Y-89423000D01*
X150435000Y-89445000D01*
X150986250Y-89445000D01*
X151145000Y-89286250D01*
X151145000Y-89242900D01*
X152228550Y-89242900D01*
X153047197Y-90334429D01*
M02*
