%TF.GenerationSoftware,KiCad,Pcbnew,4.0.7-e2-6376~58~ubuntu16.04.1*%
%TF.CreationDate,2017-11-12T16:16:19-05:00*%
%TF.ProjectId,AH1892Breakout,414831383932427265616B6F75742E6B,rev?*%
%TF.FileFunction,Legend,Top*%
%FSLAX46Y46*%
G04 Gerber Fmt 4.6, Leading zero omitted, Abs format (unit mm)*
G04 Created by KiCad (PCBNEW 4.0.7-e2-6376~58~ubuntu16.04.1) date Sun Nov 12 16:16:19 2017*
%MOMM*%
%LPD*%
G01*
G04 APERTURE LIST*
%ADD10C,0.127000*%
%ADD11C,0.100000*%
%ADD12C,0.254000*%
%ADD13C,0.444500*%
%ADD14C,0.150000*%
G04 APERTURE END LIST*
D10*
X146931428Y-113422929D02*
X146931428Y-112822929D01*
X147274285Y-113422929D02*
X147017142Y-113080071D01*
X147274285Y-112822929D02*
X146931428Y-113165786D01*
X147760000Y-113394357D02*
X147702857Y-113422929D01*
X147588571Y-113422929D01*
X147531428Y-113394357D01*
X147502857Y-113337214D01*
X147502857Y-113108643D01*
X147531428Y-113051500D01*
X147588571Y-113022929D01*
X147702857Y-113022929D01*
X147760000Y-113051500D01*
X147788571Y-113108643D01*
X147788571Y-113165786D01*
X147502857Y-113222929D01*
X147988571Y-113022929D02*
X148131428Y-113422929D01*
X148274286Y-113022929D01*
X148502857Y-113422929D02*
X148502857Y-113022929D01*
X148502857Y-112822929D02*
X148474286Y-112851500D01*
X148502857Y-112880071D01*
X148531429Y-112851500D01*
X148502857Y-112822929D01*
X148502857Y-112880071D01*
X148788571Y-113022929D02*
X148788571Y-113422929D01*
X148788571Y-113080071D02*
X148817143Y-113051500D01*
X148874285Y-113022929D01*
X148960000Y-113022929D01*
X149017143Y-113051500D01*
X149045714Y-113108643D01*
X149045714Y-113422929D01*
X149788571Y-113422929D02*
X149788571Y-112822929D01*
X150131428Y-113422929D02*
X149874285Y-113080071D01*
X150131428Y-112822929D02*
X149788571Y-113165786D01*
X150617143Y-113394357D02*
X150560000Y-113422929D01*
X150445714Y-113422929D01*
X150388571Y-113394357D01*
X150360000Y-113337214D01*
X150360000Y-113108643D01*
X150388571Y-113051500D01*
X150445714Y-113022929D01*
X150560000Y-113022929D01*
X150617143Y-113051500D01*
X150645714Y-113108643D01*
X150645714Y-113165786D01*
X150360000Y-113222929D01*
X150874286Y-113394357D02*
X150931429Y-113422929D01*
X151045714Y-113422929D01*
X151102857Y-113394357D01*
X151131429Y-113337214D01*
X151131429Y-113308643D01*
X151102857Y-113251500D01*
X151045714Y-113222929D01*
X150960000Y-113222929D01*
X150902857Y-113194357D01*
X150874286Y-113137214D01*
X150874286Y-113108643D01*
X150902857Y-113051500D01*
X150960000Y-113022929D01*
X151045714Y-113022929D01*
X151102857Y-113051500D01*
X151360000Y-113394357D02*
X151417143Y-113422929D01*
X151531428Y-113422929D01*
X151588571Y-113394357D01*
X151617143Y-113337214D01*
X151617143Y-113308643D01*
X151588571Y-113251500D01*
X151531428Y-113222929D01*
X151445714Y-113222929D01*
X151388571Y-113194357D01*
X151360000Y-113137214D01*
X151360000Y-113108643D01*
X151388571Y-113051500D01*
X151445714Y-113022929D01*
X151531428Y-113022929D01*
X151588571Y-113051500D01*
X151959999Y-113422929D02*
X151902857Y-113394357D01*
X151874285Y-113337214D01*
X151874285Y-112822929D01*
X152417143Y-113394357D02*
X152360000Y-113422929D01*
X152245714Y-113422929D01*
X152188571Y-113394357D01*
X152160000Y-113337214D01*
X152160000Y-113108643D01*
X152188571Y-113051500D01*
X152245714Y-113022929D01*
X152360000Y-113022929D01*
X152417143Y-113051500D01*
X152445714Y-113108643D01*
X152445714Y-113165786D01*
X152160000Y-113222929D01*
X152702857Y-113422929D02*
X152702857Y-113022929D01*
X152702857Y-113137214D02*
X152731429Y-113080071D01*
X152760000Y-113051500D01*
X152817143Y-113022929D01*
X152874286Y-113022929D01*
X148831428Y-113907071D02*
X148859999Y-113878500D01*
X148917142Y-113849929D01*
X149059999Y-113849929D01*
X149117142Y-113878500D01*
X149145713Y-113907071D01*
X149174285Y-113964214D01*
X149174285Y-114021357D01*
X149145713Y-114107071D01*
X148802856Y-114449929D01*
X149174285Y-114449929D01*
X149545714Y-113849929D02*
X149602857Y-113849929D01*
X149660000Y-113878500D01*
X149688571Y-113907071D01*
X149717142Y-113964214D01*
X149745714Y-114078500D01*
X149745714Y-114221357D01*
X149717142Y-114335643D01*
X149688571Y-114392786D01*
X149660000Y-114421357D01*
X149602857Y-114449929D01*
X149545714Y-114449929D01*
X149488571Y-114421357D01*
X149460000Y-114392786D01*
X149431428Y-114335643D01*
X149402857Y-114221357D01*
X149402857Y-114078500D01*
X149431428Y-113964214D01*
X149460000Y-113907071D01*
X149488571Y-113878500D01*
X149545714Y-113849929D01*
X150317143Y-114449929D02*
X149974286Y-114449929D01*
X150145714Y-114449929D02*
X150145714Y-113849929D01*
X150088571Y-113935643D01*
X150031429Y-113992786D01*
X149974286Y-114021357D01*
X150517143Y-113849929D02*
X150917143Y-113849929D01*
X150660000Y-114449929D01*
D11*
X149110000Y-89670000D02*
X149110000Y-90670000D01*
X150610000Y-89670000D02*
X149110000Y-89670000D01*
X150610000Y-90670000D02*
X150610000Y-89670000D01*
X149110000Y-90670000D02*
X150610000Y-90670000D01*
D12*
X150495000Y-108839000D02*
X150495000Y-109093000D01*
X149326600Y-108585000D02*
X149326600Y-109093000D01*
D13*
X152699806Y-108966000D02*
G75*
G03X152699806Y-108966000I-2839806J0D01*
G01*
D14*
X151003095Y-89622381D02*
X151003095Y-90431905D01*
X151050714Y-90527143D01*
X151098333Y-90574762D01*
X151193571Y-90622381D01*
X151384048Y-90622381D01*
X151479286Y-90574762D01*
X151526905Y-90527143D01*
X151574524Y-90431905D01*
X151574524Y-89622381D01*
X152574524Y-90622381D02*
X152003095Y-90622381D01*
X152288809Y-90622381D02*
X152288809Y-89622381D01*
X152193571Y-89765238D01*
X152098333Y-89860476D01*
X152003095Y-89908095D01*
X145121476Y-103068381D02*
X145121476Y-102068381D01*
X145454810Y-102782667D01*
X145788143Y-102068381D01*
X145788143Y-103068381D01*
X146264333Y-103068381D02*
X146264333Y-102068381D01*
X146645286Y-102068381D01*
X146740524Y-102116000D01*
X146788143Y-102163619D01*
X146835762Y-102258857D01*
X146835762Y-102401714D01*
X146788143Y-102496952D01*
X146740524Y-102544571D01*
X146645286Y-102592190D01*
X146264333Y-102592190D01*
X147788143Y-103068381D02*
X147216714Y-103068381D01*
X147502428Y-103068381D02*
X147502428Y-102068381D01*
X147407190Y-102211238D01*
X147311952Y-102306476D01*
X147216714Y-102354095D01*
D12*
X149327810Y-108869238D02*
X149327810Y-106837238D01*
X150488952Y-108869238D02*
X149618095Y-107708095D01*
X150488952Y-106837238D02*
X149327810Y-107998381D01*
X149327810Y-111155238D02*
X149327810Y-109123238D01*
X150488952Y-111155238D02*
X149618095Y-109994095D01*
X150488952Y-109123238D02*
X149327810Y-110284381D01*
M02*
