M48
;DRILL file {KiCad 4.0.7-e2-6376~58~ubuntu16.04.1} date Fri Jan  5 22:30:22 2018
;FORMAT={-:-/ absolute / inch / decimal}
FMAT,2
INCH,TZ
T1C0.013
T2C0.030
%
G90
G05
M72
T1
X6.025Y-3.925
X6.185Y-3.905
X6.1973Y-3.7573
X6.2362Y-3.8741
X6.285Y-3.71
X6.435Y-3.875
T2
X5.4863Y-3.64
X5.565Y-3.64
X5.6438Y-3.64
X5.6675Y-3.925
X5.7225Y-3.64
X5.7463Y-3.925
X5.8013Y-3.64
X5.825Y-3.925
X5.88Y-3.64
X6.56Y-3.635
X6.6387Y-3.635
X6.66Y-3.92
X6.7175Y-3.635
X6.7387Y-3.92
X6.7962Y-3.635
X6.8175Y-3.92
X6.875Y-3.635
X6.9537Y-3.635
X7.0324Y-3.635
X7.1112Y-3.635
T0
M30
