%TF.GenerationSoftware,KiCad,Pcbnew,4.0.7-e2-6376~58~ubuntu16.04.1*%
%TF.CreationDate,2018-01-05T22:29:52-05:00*%
%TF.ProjectId,GarageFrontPanel,47617261676546726F6E7450616E656C,rev?*%
%TF.FileFunction,Copper,L1,Top,Signal*%
%FSLAX46Y46*%
G04 Gerber Fmt 4.6, Leading zero omitted, Abs format (unit mm)*
G04 Created by KiCad (PCBNEW 4.0.7-e2-6376~58~ubuntu16.04.1) date Fri Jan  5 22:29:52 2018*
%MOMM*%
%LPD*%
G01*
G04 APERTURE LIST*
%ADD10C,0.150000*%
%ADD11C,0.127000*%
%ADD12R,1.250000X1.500000*%
%ADD13R,1.500000X1.300000*%
%ADD14R,1.200000X1.700000*%
%ADD15O,1.200000X1.700000*%
%ADD16C,4.064000*%
%ADD17C,0.685800*%
%ADD18C,0.254000*%
G04 APERTURE END LIST*
D10*
D11*
X139065000Y-104140000D02*
X175895000Y-104140000D01*
X190500000Y-96520000D02*
X190500000Y-88900000D01*
X175895000Y-104140000D02*
X190500000Y-96520000D01*
X124460000Y-96520000D02*
X139065000Y-104140000D01*
X124460000Y-88900000D02*
X124460000Y-96520000D01*
X190500000Y-88900000D02*
X124460000Y-88900000D01*
D12*
X155575000Y-98278000D03*
X155575000Y-95778000D03*
X159766000Y-98258000D03*
X159766000Y-95758000D03*
D13*
X162339000Y-101854000D03*
X159639000Y-101854000D03*
X156116000Y-101854000D03*
X153416000Y-101854000D03*
D14*
X166624000Y-92329000D03*
D15*
X168624000Y-92329000D03*
X170624000Y-92329000D03*
X172624000Y-92329000D03*
X174624000Y-92329000D03*
X176624000Y-92329000D03*
X178624000Y-92329000D03*
X180624000Y-92329000D03*
D14*
X143955000Y-99695000D03*
D15*
X145955000Y-99695000D03*
X147955000Y-99695000D03*
D14*
X169164000Y-99568000D03*
D15*
X171164000Y-99568000D03*
X173164000Y-99568000D03*
D14*
X139352000Y-92456000D03*
D15*
X141352000Y-92456000D03*
X143352000Y-92456000D03*
X145352000Y-92456000D03*
X147352000Y-92456000D03*
X149352000Y-92456000D03*
D16*
X187452000Y-92202000D03*
X127508000Y-92202000D03*
D17*
X157099000Y-99187000D03*
X158399509Y-98401841D03*
X163449000Y-98425000D03*
X157412618Y-95436618D03*
X159639000Y-94234000D03*
X153035000Y-99695000D03*
D18*
X157099000Y-99187000D02*
X156484000Y-99187000D01*
X156484000Y-99187000D02*
X155575000Y-98278000D01*
X155956000Y-93599000D02*
X155575000Y-93980000D01*
X155575000Y-93980000D02*
X155575000Y-95778000D01*
X156728000Y-93599000D02*
X155956000Y-93599000D01*
X159766000Y-95758000D02*
X158887000Y-95758000D01*
X158887000Y-95758000D02*
X156728000Y-93599000D01*
X158543350Y-98258000D02*
X158399509Y-98401841D01*
X159766000Y-98258000D02*
X158543350Y-98258000D01*
X156116000Y-101854000D02*
X156116000Y-102758000D01*
X156116000Y-102758000D02*
X155988999Y-102885001D01*
X139352000Y-97227802D02*
X139352000Y-93560000D01*
X155988999Y-102885001D02*
X145009199Y-102885001D01*
X145009199Y-102885001D02*
X139352000Y-97227802D01*
X139352000Y-93560000D02*
X139352000Y-92456000D01*
X162339000Y-101854000D02*
X162339000Y-102758000D01*
X162339000Y-102758000D02*
X162211999Y-102885001D01*
X162211999Y-102885001D02*
X156243001Y-102885001D01*
X156243001Y-102885001D02*
X156116000Y-102758000D01*
X162339000Y-99535000D02*
X163449000Y-98425000D01*
X162339000Y-101854000D02*
X162339000Y-99535000D01*
X157412618Y-95921551D02*
X157412618Y-95436618D01*
X158623000Y-99673481D02*
X157412618Y-98463099D01*
X158623000Y-100457000D02*
X158623000Y-99673481D01*
X157412618Y-98463099D02*
X157412618Y-95921551D01*
X174624000Y-93473000D02*
X174624000Y-93433000D01*
X172085000Y-96012000D02*
X174624000Y-93473000D01*
X164577000Y-96012000D02*
X172085000Y-96012000D01*
X159639000Y-100950000D02*
X164577000Y-96012000D01*
X159639000Y-101854000D02*
X159639000Y-100950000D01*
X174624000Y-93433000D02*
X174624000Y-92329000D01*
X149352000Y-92456000D02*
X149352000Y-94115802D01*
X149352000Y-94115802D02*
X155693198Y-100457000D01*
X155693198Y-100457000D02*
X158623000Y-100457000D01*
X158623000Y-100457000D02*
X159639000Y-101473000D01*
X159639000Y-101473000D02*
X159639000Y-101854000D01*
X172593000Y-93345000D02*
X172593000Y-92360000D01*
X172593000Y-92360000D02*
X172624000Y-92329000D01*
X171704000Y-94234000D02*
X172593000Y-93345000D01*
X159639000Y-94234000D02*
X171704000Y-94234000D01*
X153035000Y-99695000D02*
X153035000Y-101473000D01*
X153035000Y-101473000D02*
X153416000Y-101854000D01*
X147352000Y-92456000D02*
X147352000Y-95890000D01*
X147352000Y-95890000D02*
X153316000Y-101854000D01*
X153316000Y-101854000D02*
X153416000Y-101854000D01*
X178624000Y-92329000D02*
X178624000Y-94962000D01*
X178624000Y-94962000D02*
X174018000Y-99568000D01*
X174018000Y-99568000D02*
X173164000Y-99568000D01*
G36*
X190055500Y-96250551D02*
X175786014Y-103695500D01*
X139173986Y-103695500D01*
X124904500Y-96250551D01*
X124904500Y-92679870D01*
X125094583Y-92679870D01*
X125461166Y-93567069D01*
X126139361Y-94246449D01*
X127025919Y-94614580D01*
X127985870Y-94615417D01*
X128873069Y-94248834D01*
X129552449Y-93570639D01*
X129920580Y-92684081D01*
X129921417Y-91724130D01*
X129872607Y-91606000D01*
X138363536Y-91606000D01*
X138363536Y-93306000D01*
X138390103Y-93447190D01*
X138473546Y-93576865D01*
X138600866Y-93663859D01*
X138752000Y-93694464D01*
X138844000Y-93694464D01*
X138844000Y-97227802D01*
X138882669Y-97422205D01*
X138992790Y-97587012D01*
X144649989Y-103244212D01*
X144814796Y-103354332D01*
X145009199Y-103393001D01*
X155988999Y-103393001D01*
X156116000Y-103367739D01*
X156243001Y-103393001D01*
X162211999Y-103393001D01*
X162406402Y-103354332D01*
X162571209Y-103244211D01*
X162698211Y-103117210D01*
X162808331Y-102952403D01*
X162820254Y-102892464D01*
X163089000Y-102892464D01*
X163230190Y-102865897D01*
X163359865Y-102782454D01*
X163446859Y-102655134D01*
X163477464Y-102504000D01*
X163477464Y-101204000D01*
X163450897Y-101062810D01*
X163367454Y-100933135D01*
X163240134Y-100846141D01*
X163089000Y-100815536D01*
X162847000Y-100815536D01*
X162847000Y-99853750D01*
X167929000Y-99853750D01*
X167929000Y-100544310D01*
X168025673Y-100777699D01*
X168204302Y-100956327D01*
X168437691Y-101053000D01*
X168878250Y-101053000D01*
X169037000Y-100894250D01*
X169037000Y-99695000D01*
X168087750Y-99695000D01*
X167929000Y-99853750D01*
X162847000Y-99853750D01*
X162847000Y-99745420D01*
X163443525Y-99148895D01*
X163592361Y-99149025D01*
X163858521Y-99039050D01*
X164062335Y-98835592D01*
X164163611Y-98591690D01*
X167929000Y-98591690D01*
X167929000Y-99282250D01*
X168087750Y-99441000D01*
X169037000Y-99441000D01*
X169037000Y-98241750D01*
X169291000Y-98241750D01*
X169291000Y-99441000D01*
X169311000Y-99441000D01*
X169311000Y-99695000D01*
X169291000Y-99695000D01*
X169291000Y-100894250D01*
X169449750Y-101053000D01*
X169890309Y-101053000D01*
X170123698Y-100956327D01*
X170302327Y-100777699D01*
X170399000Y-100544310D01*
X170399000Y-100429039D01*
X170470328Y-100535789D01*
X170788588Y-100748443D01*
X171164000Y-100823117D01*
X171539412Y-100748443D01*
X171857672Y-100535789D01*
X172070326Y-100217529D01*
X172145000Y-99842117D01*
X172145000Y-99293883D01*
X172183000Y-99293883D01*
X172183000Y-99842117D01*
X172257674Y-100217529D01*
X172470328Y-100535789D01*
X172788588Y-100748443D01*
X173164000Y-100823117D01*
X173539412Y-100748443D01*
X173857672Y-100535789D01*
X174070326Y-100217529D01*
X174101793Y-100059333D01*
X174212403Y-100037331D01*
X174377210Y-99927210D01*
X178983210Y-95321210D01*
X179093331Y-95156403D01*
X179132000Y-94962000D01*
X179132000Y-93420851D01*
X179317672Y-93296789D01*
X179530326Y-92978529D01*
X179605000Y-92603117D01*
X179605000Y-92054883D01*
X179643000Y-92054883D01*
X179643000Y-92603117D01*
X179717674Y-92978529D01*
X179930328Y-93296789D01*
X180248588Y-93509443D01*
X180624000Y-93584117D01*
X180999412Y-93509443D01*
X181317672Y-93296789D01*
X181530326Y-92978529D01*
X181589732Y-92679870D01*
X185038583Y-92679870D01*
X185405166Y-93567069D01*
X186083361Y-94246449D01*
X186969919Y-94614580D01*
X187929870Y-94615417D01*
X188817069Y-94248834D01*
X189496449Y-93570639D01*
X189864580Y-92684081D01*
X189865417Y-91724130D01*
X189498834Y-90836931D01*
X188820639Y-90157551D01*
X187934081Y-89789420D01*
X186974130Y-89788583D01*
X186086931Y-90155166D01*
X185407551Y-90833361D01*
X185039420Y-91719919D01*
X185038583Y-92679870D01*
X181589732Y-92679870D01*
X181605000Y-92603117D01*
X181605000Y-92054883D01*
X181530326Y-91679471D01*
X181317672Y-91361211D01*
X180999412Y-91148557D01*
X180624000Y-91073883D01*
X180248588Y-91148557D01*
X179930328Y-91361211D01*
X179717674Y-91679471D01*
X179643000Y-92054883D01*
X179605000Y-92054883D01*
X179530326Y-91679471D01*
X179317672Y-91361211D01*
X178999412Y-91148557D01*
X178624000Y-91073883D01*
X178248588Y-91148557D01*
X177930328Y-91361211D01*
X177717674Y-91679471D01*
X177643000Y-92054883D01*
X177643000Y-92603117D01*
X177717674Y-92978529D01*
X177930328Y-93296789D01*
X178116000Y-93420851D01*
X178116000Y-94751580D01*
X174021773Y-98845807D01*
X173857672Y-98600211D01*
X173539412Y-98387557D01*
X173164000Y-98312883D01*
X172788588Y-98387557D01*
X172470328Y-98600211D01*
X172257674Y-98918471D01*
X172183000Y-99293883D01*
X172145000Y-99293883D01*
X172070326Y-98918471D01*
X171857672Y-98600211D01*
X171539412Y-98387557D01*
X171164000Y-98312883D01*
X170788588Y-98387557D01*
X170470328Y-98600211D01*
X170399000Y-98706961D01*
X170399000Y-98591690D01*
X170302327Y-98358301D01*
X170123698Y-98179673D01*
X169890309Y-98083000D01*
X169449750Y-98083000D01*
X169291000Y-98241750D01*
X169037000Y-98241750D01*
X168878250Y-98083000D01*
X168437691Y-98083000D01*
X168204302Y-98179673D01*
X168025673Y-98358301D01*
X167929000Y-98591690D01*
X164163611Y-98591690D01*
X164172774Y-98569624D01*
X164173025Y-98281639D01*
X164063050Y-98015479D01*
X163859592Y-97811665D01*
X163602506Y-97704914D01*
X164787421Y-96520000D01*
X172085000Y-96520000D01*
X172279403Y-96481331D01*
X172444210Y-96371210D01*
X174983210Y-93832210D01*
X175093331Y-93667404D01*
X175105186Y-93607802D01*
X175132000Y-93473000D01*
X175132000Y-93420851D01*
X175317672Y-93296789D01*
X175530326Y-92978529D01*
X175605000Y-92603117D01*
X175605000Y-92054883D01*
X175643000Y-92054883D01*
X175643000Y-92603117D01*
X175717674Y-92978529D01*
X175930328Y-93296789D01*
X176248588Y-93509443D01*
X176624000Y-93584117D01*
X176999412Y-93509443D01*
X177317672Y-93296789D01*
X177530326Y-92978529D01*
X177605000Y-92603117D01*
X177605000Y-92054883D01*
X177530326Y-91679471D01*
X177317672Y-91361211D01*
X176999412Y-91148557D01*
X176624000Y-91073883D01*
X176248588Y-91148557D01*
X175930328Y-91361211D01*
X175717674Y-91679471D01*
X175643000Y-92054883D01*
X175605000Y-92054883D01*
X175530326Y-91679471D01*
X175317672Y-91361211D01*
X174999412Y-91148557D01*
X174624000Y-91073883D01*
X174248588Y-91148557D01*
X173930328Y-91361211D01*
X173717674Y-91679471D01*
X173643000Y-92054883D01*
X173643000Y-92603117D01*
X173717674Y-92978529D01*
X173930328Y-93296789D01*
X174021124Y-93357456D01*
X171874580Y-95504000D01*
X164577000Y-95504000D01*
X164382597Y-95542669D01*
X164217790Y-95652789D01*
X160758359Y-99112221D01*
X160779464Y-99008000D01*
X160779464Y-97508000D01*
X160752897Y-97366810D01*
X160669454Y-97237135D01*
X160542134Y-97150141D01*
X160506870Y-97143000D01*
X160517310Y-97143000D01*
X160750699Y-97046327D01*
X160929327Y-96867698D01*
X161026000Y-96634309D01*
X161026000Y-96043750D01*
X160867250Y-95885000D01*
X159893000Y-95885000D01*
X159893000Y-95905000D01*
X159639000Y-95905000D01*
X159639000Y-95885000D01*
X158664750Y-95885000D01*
X158506000Y-96043750D01*
X158506000Y-96634309D01*
X158602673Y-96867698D01*
X158781301Y-97046327D01*
X159014690Y-97143000D01*
X159016301Y-97143000D01*
X158999810Y-97146103D01*
X158870135Y-97229546D01*
X158783141Y-97356866D01*
X158752536Y-97508000D01*
X158752536Y-97750000D01*
X158717368Y-97750000D01*
X158544133Y-97678067D01*
X158256148Y-97677816D01*
X157989988Y-97787791D01*
X157920618Y-97857040D01*
X157920618Y-95952361D01*
X158025953Y-95847210D01*
X158136392Y-95581242D01*
X158136643Y-95293257D01*
X158026668Y-95027097D01*
X157881516Y-94881691D01*
X158506000Y-94881691D01*
X158506000Y-95472250D01*
X158664750Y-95631000D01*
X159639000Y-95631000D01*
X159639000Y-95611000D01*
X159893000Y-95611000D01*
X159893000Y-95631000D01*
X160867250Y-95631000D01*
X161026000Y-95472250D01*
X161026000Y-94881691D01*
X160968138Y-94742000D01*
X171704000Y-94742000D01*
X171898403Y-94703331D01*
X172063210Y-94593210D01*
X172952210Y-93704210D01*
X173062331Y-93539403D01*
X173078848Y-93456366D01*
X173317672Y-93296789D01*
X173530326Y-92978529D01*
X173605000Y-92603117D01*
X173605000Y-92054883D01*
X173530326Y-91679471D01*
X173317672Y-91361211D01*
X172999412Y-91148557D01*
X172624000Y-91073883D01*
X172248588Y-91148557D01*
X171930328Y-91361211D01*
X171717674Y-91679471D01*
X171643000Y-92054883D01*
X171643000Y-92603117D01*
X171717674Y-92978529D01*
X171927309Y-93292271D01*
X171493580Y-93726000D01*
X167562760Y-93726000D01*
X167583698Y-93717327D01*
X167762327Y-93538699D01*
X167859000Y-93305310D01*
X167859000Y-93190039D01*
X167930328Y-93296789D01*
X168248588Y-93509443D01*
X168624000Y-93584117D01*
X168999412Y-93509443D01*
X169317672Y-93296789D01*
X169530326Y-92978529D01*
X169605000Y-92603117D01*
X169605000Y-92054883D01*
X169643000Y-92054883D01*
X169643000Y-92603117D01*
X169717674Y-92978529D01*
X169930328Y-93296789D01*
X170248588Y-93509443D01*
X170624000Y-93584117D01*
X170999412Y-93509443D01*
X171317672Y-93296789D01*
X171530326Y-92978529D01*
X171605000Y-92603117D01*
X171605000Y-92054883D01*
X171530326Y-91679471D01*
X171317672Y-91361211D01*
X170999412Y-91148557D01*
X170624000Y-91073883D01*
X170248588Y-91148557D01*
X169930328Y-91361211D01*
X169717674Y-91679471D01*
X169643000Y-92054883D01*
X169605000Y-92054883D01*
X169530326Y-91679471D01*
X169317672Y-91361211D01*
X168999412Y-91148557D01*
X168624000Y-91073883D01*
X168248588Y-91148557D01*
X167930328Y-91361211D01*
X167859000Y-91467961D01*
X167859000Y-91352690D01*
X167762327Y-91119301D01*
X167583698Y-90940673D01*
X167350309Y-90844000D01*
X166909750Y-90844000D01*
X166751000Y-91002750D01*
X166751000Y-92202000D01*
X166771000Y-92202000D01*
X166771000Y-92456000D01*
X166751000Y-92456000D01*
X166751000Y-92476000D01*
X166497000Y-92476000D01*
X166497000Y-92456000D01*
X165547750Y-92456000D01*
X165389000Y-92614750D01*
X165389000Y-93305310D01*
X165485673Y-93538699D01*
X165664302Y-93717327D01*
X165685240Y-93726000D01*
X160154743Y-93726000D01*
X160049592Y-93620665D01*
X159783624Y-93510226D01*
X159495639Y-93509975D01*
X159229479Y-93619950D01*
X159025665Y-93823408D01*
X158915226Y-94089376D01*
X158914975Y-94377361D01*
X158928009Y-94408905D01*
X158781301Y-94469673D01*
X158602673Y-94648302D01*
X158506000Y-94881691D01*
X157881516Y-94881691D01*
X157823210Y-94823283D01*
X157557242Y-94712844D01*
X157269257Y-94712593D01*
X157003097Y-94822568D01*
X156835000Y-94990371D01*
X156835000Y-94901691D01*
X156738327Y-94668302D01*
X156559699Y-94489673D01*
X156326310Y-94393000D01*
X155860750Y-94393000D01*
X155702000Y-94551750D01*
X155702000Y-95651000D01*
X155722000Y-95651000D01*
X155722000Y-95905000D01*
X155702000Y-95905000D01*
X155702000Y-95925000D01*
X155448000Y-95925000D01*
X155448000Y-95905000D01*
X154473750Y-95905000D01*
X154315000Y-96063750D01*
X154315000Y-96654309D01*
X154411673Y-96887698D01*
X154590301Y-97066327D01*
X154823690Y-97163000D01*
X154825301Y-97163000D01*
X154808810Y-97166103D01*
X154679135Y-97249546D01*
X154592141Y-97376866D01*
X154561536Y-97528000D01*
X154561536Y-98606918D01*
X150856309Y-94901691D01*
X154315000Y-94901691D01*
X154315000Y-95492250D01*
X154473750Y-95651000D01*
X155448000Y-95651000D01*
X155448000Y-94551750D01*
X155289250Y-94393000D01*
X154823690Y-94393000D01*
X154590301Y-94489673D01*
X154411673Y-94668302D01*
X154315000Y-94901691D01*
X150856309Y-94901691D01*
X149860000Y-93905382D01*
X149860000Y-93547851D01*
X150045672Y-93423789D01*
X150258326Y-93105529D01*
X150333000Y-92730117D01*
X150333000Y-92181883D01*
X150258326Y-91806471D01*
X150045672Y-91488211D01*
X149842850Y-91352690D01*
X165389000Y-91352690D01*
X165389000Y-92043250D01*
X165547750Y-92202000D01*
X166497000Y-92202000D01*
X166497000Y-91002750D01*
X166338250Y-90844000D01*
X165897691Y-90844000D01*
X165664302Y-90940673D01*
X165485673Y-91119301D01*
X165389000Y-91352690D01*
X149842850Y-91352690D01*
X149727412Y-91275557D01*
X149352000Y-91200883D01*
X148976588Y-91275557D01*
X148658328Y-91488211D01*
X148445674Y-91806471D01*
X148371000Y-92181883D01*
X148371000Y-92730117D01*
X148445674Y-93105529D01*
X148658328Y-93423789D01*
X148844000Y-93547851D01*
X148844000Y-94115802D01*
X148882669Y-94310205D01*
X148992790Y-94475012D01*
X155333988Y-100816210D01*
X155340235Y-100820384D01*
X155224810Y-100842103D01*
X155095135Y-100925546D01*
X155008141Y-101052866D01*
X154977536Y-101204000D01*
X154977536Y-102377001D01*
X154554464Y-102377001D01*
X154554464Y-101204000D01*
X154527897Y-101062810D01*
X154444454Y-100933135D01*
X154317134Y-100846141D01*
X154166000Y-100815536D01*
X153543000Y-100815536D01*
X153543000Y-100210743D01*
X153648335Y-100105592D01*
X153758774Y-99839624D01*
X153759025Y-99551639D01*
X153649050Y-99285479D01*
X153445592Y-99081665D01*
X153179624Y-98971226D01*
X152891639Y-98970975D01*
X152625479Y-99080950D01*
X152421665Y-99284408D01*
X152311226Y-99550376D01*
X152310975Y-99838361D01*
X152420950Y-100104521D01*
X152527000Y-100210757D01*
X152527000Y-100346580D01*
X147860000Y-95679580D01*
X147860000Y-93547851D01*
X148045672Y-93423789D01*
X148258326Y-93105529D01*
X148333000Y-92730117D01*
X148333000Y-92181883D01*
X148258326Y-91806471D01*
X148045672Y-91488211D01*
X147727412Y-91275557D01*
X147352000Y-91200883D01*
X146976588Y-91275557D01*
X146658328Y-91488211D01*
X146445674Y-91806471D01*
X146371000Y-92181883D01*
X146371000Y-92730117D01*
X146445674Y-93105529D01*
X146658328Y-93423789D01*
X146844000Y-93547851D01*
X146844000Y-95890000D01*
X146882669Y-96084403D01*
X146992790Y-96249210D01*
X152277536Y-101533956D01*
X152277536Y-102377001D01*
X145219620Y-102377001D01*
X144022619Y-101180000D01*
X144082002Y-101180000D01*
X144082002Y-101021252D01*
X144240750Y-101180000D01*
X144681309Y-101180000D01*
X144914698Y-101083327D01*
X145093327Y-100904699D01*
X145190000Y-100671310D01*
X145190000Y-100556039D01*
X145261328Y-100662789D01*
X145579588Y-100875443D01*
X145955000Y-100950117D01*
X146330412Y-100875443D01*
X146648672Y-100662789D01*
X146861326Y-100344529D01*
X146936000Y-99969117D01*
X146936000Y-99420883D01*
X146974000Y-99420883D01*
X146974000Y-99969117D01*
X147048674Y-100344529D01*
X147261328Y-100662789D01*
X147579588Y-100875443D01*
X147955000Y-100950117D01*
X148330412Y-100875443D01*
X148648672Y-100662789D01*
X148861326Y-100344529D01*
X148936000Y-99969117D01*
X148936000Y-99420883D01*
X148861326Y-99045471D01*
X148648672Y-98727211D01*
X148330412Y-98514557D01*
X147955000Y-98439883D01*
X147579588Y-98514557D01*
X147261328Y-98727211D01*
X147048674Y-99045471D01*
X146974000Y-99420883D01*
X146936000Y-99420883D01*
X146861326Y-99045471D01*
X146648672Y-98727211D01*
X146330412Y-98514557D01*
X145955000Y-98439883D01*
X145579588Y-98514557D01*
X145261328Y-98727211D01*
X145190000Y-98833961D01*
X145190000Y-98718690D01*
X145093327Y-98485301D01*
X144914698Y-98306673D01*
X144681309Y-98210000D01*
X144240750Y-98210000D01*
X144082000Y-98368750D01*
X144082000Y-99568000D01*
X144102000Y-99568000D01*
X144102000Y-99822000D01*
X144082000Y-99822000D01*
X144082000Y-99842000D01*
X143828000Y-99842000D01*
X143828000Y-99822000D01*
X142878750Y-99822000D01*
X142771684Y-99929066D01*
X141561308Y-98718690D01*
X142720000Y-98718690D01*
X142720000Y-99409250D01*
X142878750Y-99568000D01*
X143828000Y-99568000D01*
X143828000Y-98368750D01*
X143669250Y-98210000D01*
X143228691Y-98210000D01*
X142995302Y-98306673D01*
X142816673Y-98485301D01*
X142720000Y-98718690D01*
X141561308Y-98718690D01*
X139860000Y-97017382D01*
X139860000Y-93694464D01*
X139952000Y-93694464D01*
X140093190Y-93667897D01*
X140222865Y-93584454D01*
X140309859Y-93457134D01*
X140325983Y-93377510D01*
X140522875Y-93637933D01*
X140942624Y-93884286D01*
X141034391Y-93899462D01*
X141225000Y-93774731D01*
X141225000Y-92583000D01*
X141479000Y-92583000D01*
X141479000Y-93774731D01*
X141669609Y-93899462D01*
X141761376Y-93884286D01*
X142181125Y-93637933D01*
X142352000Y-93411922D01*
X142522875Y-93637933D01*
X142942624Y-93884286D01*
X143034391Y-93899462D01*
X143225000Y-93774731D01*
X143225000Y-92583000D01*
X141479000Y-92583000D01*
X141225000Y-92583000D01*
X141205000Y-92583000D01*
X141205000Y-92329000D01*
X141225000Y-92329000D01*
X141225000Y-91137269D01*
X141479000Y-91137269D01*
X141479000Y-92329000D01*
X143225000Y-92329000D01*
X143225000Y-91137269D01*
X143479000Y-91137269D01*
X143479000Y-92329000D01*
X143499000Y-92329000D01*
X143499000Y-92583000D01*
X143479000Y-92583000D01*
X143479000Y-93774731D01*
X143669609Y-93899462D01*
X143761376Y-93884286D01*
X144181125Y-93637933D01*
X144474647Y-93249701D01*
X144493532Y-93177154D01*
X144658328Y-93423789D01*
X144976588Y-93636443D01*
X145352000Y-93711117D01*
X145727412Y-93636443D01*
X146045672Y-93423789D01*
X146258326Y-93105529D01*
X146333000Y-92730117D01*
X146333000Y-92181883D01*
X146258326Y-91806471D01*
X146045672Y-91488211D01*
X145727412Y-91275557D01*
X145352000Y-91200883D01*
X144976588Y-91275557D01*
X144658328Y-91488211D01*
X144493532Y-91734846D01*
X144474647Y-91662299D01*
X144181125Y-91274067D01*
X143761376Y-91027714D01*
X143669609Y-91012538D01*
X143479000Y-91137269D01*
X143225000Y-91137269D01*
X143034391Y-91012538D01*
X142942624Y-91027714D01*
X142522875Y-91274067D01*
X142352000Y-91500078D01*
X142181125Y-91274067D01*
X141761376Y-91027714D01*
X141669609Y-91012538D01*
X141479000Y-91137269D01*
X141225000Y-91137269D01*
X141034391Y-91012538D01*
X140942624Y-91027714D01*
X140522875Y-91274067D01*
X140326804Y-91533404D01*
X140313897Y-91464810D01*
X140230454Y-91335135D01*
X140103134Y-91248141D01*
X139952000Y-91217536D01*
X138752000Y-91217536D01*
X138610810Y-91244103D01*
X138481135Y-91327546D01*
X138394141Y-91454866D01*
X138363536Y-91606000D01*
X129872607Y-91606000D01*
X129554834Y-90836931D01*
X128876639Y-90157551D01*
X127990081Y-89789420D01*
X127030130Y-89788583D01*
X126142931Y-90155166D01*
X125463551Y-90833361D01*
X125095420Y-91719919D01*
X125094583Y-92679870D01*
X124904500Y-92679870D01*
X124904500Y-89344500D01*
X190055500Y-89344500D01*
X190055500Y-96250551D01*
X190055500Y-96250551D01*
G37*
X190055500Y-96250551D02*
X175786014Y-103695500D01*
X139173986Y-103695500D01*
X124904500Y-96250551D01*
X124904500Y-92679870D01*
X125094583Y-92679870D01*
X125461166Y-93567069D01*
X126139361Y-94246449D01*
X127025919Y-94614580D01*
X127985870Y-94615417D01*
X128873069Y-94248834D01*
X129552449Y-93570639D01*
X129920580Y-92684081D01*
X129921417Y-91724130D01*
X129872607Y-91606000D01*
X138363536Y-91606000D01*
X138363536Y-93306000D01*
X138390103Y-93447190D01*
X138473546Y-93576865D01*
X138600866Y-93663859D01*
X138752000Y-93694464D01*
X138844000Y-93694464D01*
X138844000Y-97227802D01*
X138882669Y-97422205D01*
X138992790Y-97587012D01*
X144649989Y-103244212D01*
X144814796Y-103354332D01*
X145009199Y-103393001D01*
X155988999Y-103393001D01*
X156116000Y-103367739D01*
X156243001Y-103393001D01*
X162211999Y-103393001D01*
X162406402Y-103354332D01*
X162571209Y-103244211D01*
X162698211Y-103117210D01*
X162808331Y-102952403D01*
X162820254Y-102892464D01*
X163089000Y-102892464D01*
X163230190Y-102865897D01*
X163359865Y-102782454D01*
X163446859Y-102655134D01*
X163477464Y-102504000D01*
X163477464Y-101204000D01*
X163450897Y-101062810D01*
X163367454Y-100933135D01*
X163240134Y-100846141D01*
X163089000Y-100815536D01*
X162847000Y-100815536D01*
X162847000Y-99853750D01*
X167929000Y-99853750D01*
X167929000Y-100544310D01*
X168025673Y-100777699D01*
X168204302Y-100956327D01*
X168437691Y-101053000D01*
X168878250Y-101053000D01*
X169037000Y-100894250D01*
X169037000Y-99695000D01*
X168087750Y-99695000D01*
X167929000Y-99853750D01*
X162847000Y-99853750D01*
X162847000Y-99745420D01*
X163443525Y-99148895D01*
X163592361Y-99149025D01*
X163858521Y-99039050D01*
X164062335Y-98835592D01*
X164163611Y-98591690D01*
X167929000Y-98591690D01*
X167929000Y-99282250D01*
X168087750Y-99441000D01*
X169037000Y-99441000D01*
X169037000Y-98241750D01*
X169291000Y-98241750D01*
X169291000Y-99441000D01*
X169311000Y-99441000D01*
X169311000Y-99695000D01*
X169291000Y-99695000D01*
X169291000Y-100894250D01*
X169449750Y-101053000D01*
X169890309Y-101053000D01*
X170123698Y-100956327D01*
X170302327Y-100777699D01*
X170399000Y-100544310D01*
X170399000Y-100429039D01*
X170470328Y-100535789D01*
X170788588Y-100748443D01*
X171164000Y-100823117D01*
X171539412Y-100748443D01*
X171857672Y-100535789D01*
X172070326Y-100217529D01*
X172145000Y-99842117D01*
X172145000Y-99293883D01*
X172183000Y-99293883D01*
X172183000Y-99842117D01*
X172257674Y-100217529D01*
X172470328Y-100535789D01*
X172788588Y-100748443D01*
X173164000Y-100823117D01*
X173539412Y-100748443D01*
X173857672Y-100535789D01*
X174070326Y-100217529D01*
X174101793Y-100059333D01*
X174212403Y-100037331D01*
X174377210Y-99927210D01*
X178983210Y-95321210D01*
X179093331Y-95156403D01*
X179132000Y-94962000D01*
X179132000Y-93420851D01*
X179317672Y-93296789D01*
X179530326Y-92978529D01*
X179605000Y-92603117D01*
X179605000Y-92054883D01*
X179643000Y-92054883D01*
X179643000Y-92603117D01*
X179717674Y-92978529D01*
X179930328Y-93296789D01*
X180248588Y-93509443D01*
X180624000Y-93584117D01*
X180999412Y-93509443D01*
X181317672Y-93296789D01*
X181530326Y-92978529D01*
X181589732Y-92679870D01*
X185038583Y-92679870D01*
X185405166Y-93567069D01*
X186083361Y-94246449D01*
X186969919Y-94614580D01*
X187929870Y-94615417D01*
X188817069Y-94248834D01*
X189496449Y-93570639D01*
X189864580Y-92684081D01*
X189865417Y-91724130D01*
X189498834Y-90836931D01*
X188820639Y-90157551D01*
X187934081Y-89789420D01*
X186974130Y-89788583D01*
X186086931Y-90155166D01*
X185407551Y-90833361D01*
X185039420Y-91719919D01*
X185038583Y-92679870D01*
X181589732Y-92679870D01*
X181605000Y-92603117D01*
X181605000Y-92054883D01*
X181530326Y-91679471D01*
X181317672Y-91361211D01*
X180999412Y-91148557D01*
X180624000Y-91073883D01*
X180248588Y-91148557D01*
X179930328Y-91361211D01*
X179717674Y-91679471D01*
X179643000Y-92054883D01*
X179605000Y-92054883D01*
X179530326Y-91679471D01*
X179317672Y-91361211D01*
X178999412Y-91148557D01*
X178624000Y-91073883D01*
X178248588Y-91148557D01*
X177930328Y-91361211D01*
X177717674Y-91679471D01*
X177643000Y-92054883D01*
X177643000Y-92603117D01*
X177717674Y-92978529D01*
X177930328Y-93296789D01*
X178116000Y-93420851D01*
X178116000Y-94751580D01*
X174021773Y-98845807D01*
X173857672Y-98600211D01*
X173539412Y-98387557D01*
X173164000Y-98312883D01*
X172788588Y-98387557D01*
X172470328Y-98600211D01*
X172257674Y-98918471D01*
X172183000Y-99293883D01*
X172145000Y-99293883D01*
X172070326Y-98918471D01*
X171857672Y-98600211D01*
X171539412Y-98387557D01*
X171164000Y-98312883D01*
X170788588Y-98387557D01*
X170470328Y-98600211D01*
X170399000Y-98706961D01*
X170399000Y-98591690D01*
X170302327Y-98358301D01*
X170123698Y-98179673D01*
X169890309Y-98083000D01*
X169449750Y-98083000D01*
X169291000Y-98241750D01*
X169037000Y-98241750D01*
X168878250Y-98083000D01*
X168437691Y-98083000D01*
X168204302Y-98179673D01*
X168025673Y-98358301D01*
X167929000Y-98591690D01*
X164163611Y-98591690D01*
X164172774Y-98569624D01*
X164173025Y-98281639D01*
X164063050Y-98015479D01*
X163859592Y-97811665D01*
X163602506Y-97704914D01*
X164787421Y-96520000D01*
X172085000Y-96520000D01*
X172279403Y-96481331D01*
X172444210Y-96371210D01*
X174983210Y-93832210D01*
X175093331Y-93667404D01*
X175105186Y-93607802D01*
X175132000Y-93473000D01*
X175132000Y-93420851D01*
X175317672Y-93296789D01*
X175530326Y-92978529D01*
X175605000Y-92603117D01*
X175605000Y-92054883D01*
X175643000Y-92054883D01*
X175643000Y-92603117D01*
X175717674Y-92978529D01*
X175930328Y-93296789D01*
X176248588Y-93509443D01*
X176624000Y-93584117D01*
X176999412Y-93509443D01*
X177317672Y-93296789D01*
X177530326Y-92978529D01*
X177605000Y-92603117D01*
X177605000Y-92054883D01*
X177530326Y-91679471D01*
X177317672Y-91361211D01*
X176999412Y-91148557D01*
X176624000Y-91073883D01*
X176248588Y-91148557D01*
X175930328Y-91361211D01*
X175717674Y-91679471D01*
X175643000Y-92054883D01*
X175605000Y-92054883D01*
X175530326Y-91679471D01*
X175317672Y-91361211D01*
X174999412Y-91148557D01*
X174624000Y-91073883D01*
X174248588Y-91148557D01*
X173930328Y-91361211D01*
X173717674Y-91679471D01*
X173643000Y-92054883D01*
X173643000Y-92603117D01*
X173717674Y-92978529D01*
X173930328Y-93296789D01*
X174021124Y-93357456D01*
X171874580Y-95504000D01*
X164577000Y-95504000D01*
X164382597Y-95542669D01*
X164217790Y-95652789D01*
X160758359Y-99112221D01*
X160779464Y-99008000D01*
X160779464Y-97508000D01*
X160752897Y-97366810D01*
X160669454Y-97237135D01*
X160542134Y-97150141D01*
X160506870Y-97143000D01*
X160517310Y-97143000D01*
X160750699Y-97046327D01*
X160929327Y-96867698D01*
X161026000Y-96634309D01*
X161026000Y-96043750D01*
X160867250Y-95885000D01*
X159893000Y-95885000D01*
X159893000Y-95905000D01*
X159639000Y-95905000D01*
X159639000Y-95885000D01*
X158664750Y-95885000D01*
X158506000Y-96043750D01*
X158506000Y-96634309D01*
X158602673Y-96867698D01*
X158781301Y-97046327D01*
X159014690Y-97143000D01*
X159016301Y-97143000D01*
X158999810Y-97146103D01*
X158870135Y-97229546D01*
X158783141Y-97356866D01*
X158752536Y-97508000D01*
X158752536Y-97750000D01*
X158717368Y-97750000D01*
X158544133Y-97678067D01*
X158256148Y-97677816D01*
X157989988Y-97787791D01*
X157920618Y-97857040D01*
X157920618Y-95952361D01*
X158025953Y-95847210D01*
X158136392Y-95581242D01*
X158136643Y-95293257D01*
X158026668Y-95027097D01*
X157881516Y-94881691D01*
X158506000Y-94881691D01*
X158506000Y-95472250D01*
X158664750Y-95631000D01*
X159639000Y-95631000D01*
X159639000Y-95611000D01*
X159893000Y-95611000D01*
X159893000Y-95631000D01*
X160867250Y-95631000D01*
X161026000Y-95472250D01*
X161026000Y-94881691D01*
X160968138Y-94742000D01*
X171704000Y-94742000D01*
X171898403Y-94703331D01*
X172063210Y-94593210D01*
X172952210Y-93704210D01*
X173062331Y-93539403D01*
X173078848Y-93456366D01*
X173317672Y-93296789D01*
X173530326Y-92978529D01*
X173605000Y-92603117D01*
X173605000Y-92054883D01*
X173530326Y-91679471D01*
X173317672Y-91361211D01*
X172999412Y-91148557D01*
X172624000Y-91073883D01*
X172248588Y-91148557D01*
X171930328Y-91361211D01*
X171717674Y-91679471D01*
X171643000Y-92054883D01*
X171643000Y-92603117D01*
X171717674Y-92978529D01*
X171927309Y-93292271D01*
X171493580Y-93726000D01*
X167562760Y-93726000D01*
X167583698Y-93717327D01*
X167762327Y-93538699D01*
X167859000Y-93305310D01*
X167859000Y-93190039D01*
X167930328Y-93296789D01*
X168248588Y-93509443D01*
X168624000Y-93584117D01*
X168999412Y-93509443D01*
X169317672Y-93296789D01*
X169530326Y-92978529D01*
X169605000Y-92603117D01*
X169605000Y-92054883D01*
X169643000Y-92054883D01*
X169643000Y-92603117D01*
X169717674Y-92978529D01*
X169930328Y-93296789D01*
X170248588Y-93509443D01*
X170624000Y-93584117D01*
X170999412Y-93509443D01*
X171317672Y-93296789D01*
X171530326Y-92978529D01*
X171605000Y-92603117D01*
X171605000Y-92054883D01*
X171530326Y-91679471D01*
X171317672Y-91361211D01*
X170999412Y-91148557D01*
X170624000Y-91073883D01*
X170248588Y-91148557D01*
X169930328Y-91361211D01*
X169717674Y-91679471D01*
X169643000Y-92054883D01*
X169605000Y-92054883D01*
X169530326Y-91679471D01*
X169317672Y-91361211D01*
X168999412Y-91148557D01*
X168624000Y-91073883D01*
X168248588Y-91148557D01*
X167930328Y-91361211D01*
X167859000Y-91467961D01*
X167859000Y-91352690D01*
X167762327Y-91119301D01*
X167583698Y-90940673D01*
X167350309Y-90844000D01*
X166909750Y-90844000D01*
X166751000Y-91002750D01*
X166751000Y-92202000D01*
X166771000Y-92202000D01*
X166771000Y-92456000D01*
X166751000Y-92456000D01*
X166751000Y-92476000D01*
X166497000Y-92476000D01*
X166497000Y-92456000D01*
X165547750Y-92456000D01*
X165389000Y-92614750D01*
X165389000Y-93305310D01*
X165485673Y-93538699D01*
X165664302Y-93717327D01*
X165685240Y-93726000D01*
X160154743Y-93726000D01*
X160049592Y-93620665D01*
X159783624Y-93510226D01*
X159495639Y-93509975D01*
X159229479Y-93619950D01*
X159025665Y-93823408D01*
X158915226Y-94089376D01*
X158914975Y-94377361D01*
X158928009Y-94408905D01*
X158781301Y-94469673D01*
X158602673Y-94648302D01*
X158506000Y-94881691D01*
X157881516Y-94881691D01*
X157823210Y-94823283D01*
X157557242Y-94712844D01*
X157269257Y-94712593D01*
X157003097Y-94822568D01*
X156835000Y-94990371D01*
X156835000Y-94901691D01*
X156738327Y-94668302D01*
X156559699Y-94489673D01*
X156326310Y-94393000D01*
X155860750Y-94393000D01*
X155702000Y-94551750D01*
X155702000Y-95651000D01*
X155722000Y-95651000D01*
X155722000Y-95905000D01*
X155702000Y-95905000D01*
X155702000Y-95925000D01*
X155448000Y-95925000D01*
X155448000Y-95905000D01*
X154473750Y-95905000D01*
X154315000Y-96063750D01*
X154315000Y-96654309D01*
X154411673Y-96887698D01*
X154590301Y-97066327D01*
X154823690Y-97163000D01*
X154825301Y-97163000D01*
X154808810Y-97166103D01*
X154679135Y-97249546D01*
X154592141Y-97376866D01*
X154561536Y-97528000D01*
X154561536Y-98606918D01*
X150856309Y-94901691D01*
X154315000Y-94901691D01*
X154315000Y-95492250D01*
X154473750Y-95651000D01*
X155448000Y-95651000D01*
X155448000Y-94551750D01*
X155289250Y-94393000D01*
X154823690Y-94393000D01*
X154590301Y-94489673D01*
X154411673Y-94668302D01*
X154315000Y-94901691D01*
X150856309Y-94901691D01*
X149860000Y-93905382D01*
X149860000Y-93547851D01*
X150045672Y-93423789D01*
X150258326Y-93105529D01*
X150333000Y-92730117D01*
X150333000Y-92181883D01*
X150258326Y-91806471D01*
X150045672Y-91488211D01*
X149842850Y-91352690D01*
X165389000Y-91352690D01*
X165389000Y-92043250D01*
X165547750Y-92202000D01*
X166497000Y-92202000D01*
X166497000Y-91002750D01*
X166338250Y-90844000D01*
X165897691Y-90844000D01*
X165664302Y-90940673D01*
X165485673Y-91119301D01*
X165389000Y-91352690D01*
X149842850Y-91352690D01*
X149727412Y-91275557D01*
X149352000Y-91200883D01*
X148976588Y-91275557D01*
X148658328Y-91488211D01*
X148445674Y-91806471D01*
X148371000Y-92181883D01*
X148371000Y-92730117D01*
X148445674Y-93105529D01*
X148658328Y-93423789D01*
X148844000Y-93547851D01*
X148844000Y-94115802D01*
X148882669Y-94310205D01*
X148992790Y-94475012D01*
X155333988Y-100816210D01*
X155340235Y-100820384D01*
X155224810Y-100842103D01*
X155095135Y-100925546D01*
X155008141Y-101052866D01*
X154977536Y-101204000D01*
X154977536Y-102377001D01*
X154554464Y-102377001D01*
X154554464Y-101204000D01*
X154527897Y-101062810D01*
X154444454Y-100933135D01*
X154317134Y-100846141D01*
X154166000Y-100815536D01*
X153543000Y-100815536D01*
X153543000Y-100210743D01*
X153648335Y-100105592D01*
X153758774Y-99839624D01*
X153759025Y-99551639D01*
X153649050Y-99285479D01*
X153445592Y-99081665D01*
X153179624Y-98971226D01*
X152891639Y-98970975D01*
X152625479Y-99080950D01*
X152421665Y-99284408D01*
X152311226Y-99550376D01*
X152310975Y-99838361D01*
X152420950Y-100104521D01*
X152527000Y-100210757D01*
X152527000Y-100346580D01*
X147860000Y-95679580D01*
X147860000Y-93547851D01*
X148045672Y-93423789D01*
X148258326Y-93105529D01*
X148333000Y-92730117D01*
X148333000Y-92181883D01*
X148258326Y-91806471D01*
X148045672Y-91488211D01*
X147727412Y-91275557D01*
X147352000Y-91200883D01*
X146976588Y-91275557D01*
X146658328Y-91488211D01*
X146445674Y-91806471D01*
X146371000Y-92181883D01*
X146371000Y-92730117D01*
X146445674Y-93105529D01*
X146658328Y-93423789D01*
X146844000Y-93547851D01*
X146844000Y-95890000D01*
X146882669Y-96084403D01*
X146992790Y-96249210D01*
X152277536Y-101533956D01*
X152277536Y-102377001D01*
X145219620Y-102377001D01*
X144022619Y-101180000D01*
X144082002Y-101180000D01*
X144082002Y-101021252D01*
X144240750Y-101180000D01*
X144681309Y-101180000D01*
X144914698Y-101083327D01*
X145093327Y-100904699D01*
X145190000Y-100671310D01*
X145190000Y-100556039D01*
X145261328Y-100662789D01*
X145579588Y-100875443D01*
X145955000Y-100950117D01*
X146330412Y-100875443D01*
X146648672Y-100662789D01*
X146861326Y-100344529D01*
X146936000Y-99969117D01*
X146936000Y-99420883D01*
X146974000Y-99420883D01*
X146974000Y-99969117D01*
X147048674Y-100344529D01*
X147261328Y-100662789D01*
X147579588Y-100875443D01*
X147955000Y-100950117D01*
X148330412Y-100875443D01*
X148648672Y-100662789D01*
X148861326Y-100344529D01*
X148936000Y-99969117D01*
X148936000Y-99420883D01*
X148861326Y-99045471D01*
X148648672Y-98727211D01*
X148330412Y-98514557D01*
X147955000Y-98439883D01*
X147579588Y-98514557D01*
X147261328Y-98727211D01*
X147048674Y-99045471D01*
X146974000Y-99420883D01*
X146936000Y-99420883D01*
X146861326Y-99045471D01*
X146648672Y-98727211D01*
X146330412Y-98514557D01*
X145955000Y-98439883D01*
X145579588Y-98514557D01*
X145261328Y-98727211D01*
X145190000Y-98833961D01*
X145190000Y-98718690D01*
X145093327Y-98485301D01*
X144914698Y-98306673D01*
X144681309Y-98210000D01*
X144240750Y-98210000D01*
X144082000Y-98368750D01*
X144082000Y-99568000D01*
X144102000Y-99568000D01*
X144102000Y-99822000D01*
X144082000Y-99822000D01*
X144082000Y-99842000D01*
X143828000Y-99842000D01*
X143828000Y-99822000D01*
X142878750Y-99822000D01*
X142771684Y-99929066D01*
X141561308Y-98718690D01*
X142720000Y-98718690D01*
X142720000Y-99409250D01*
X142878750Y-99568000D01*
X143828000Y-99568000D01*
X143828000Y-98368750D01*
X143669250Y-98210000D01*
X143228691Y-98210000D01*
X142995302Y-98306673D01*
X142816673Y-98485301D01*
X142720000Y-98718690D01*
X141561308Y-98718690D01*
X139860000Y-97017382D01*
X139860000Y-93694464D01*
X139952000Y-93694464D01*
X140093190Y-93667897D01*
X140222865Y-93584454D01*
X140309859Y-93457134D01*
X140325983Y-93377510D01*
X140522875Y-93637933D01*
X140942624Y-93884286D01*
X141034391Y-93899462D01*
X141225000Y-93774731D01*
X141225000Y-92583000D01*
X141479000Y-92583000D01*
X141479000Y-93774731D01*
X141669609Y-93899462D01*
X141761376Y-93884286D01*
X142181125Y-93637933D01*
X142352000Y-93411922D01*
X142522875Y-93637933D01*
X142942624Y-93884286D01*
X143034391Y-93899462D01*
X143225000Y-93774731D01*
X143225000Y-92583000D01*
X141479000Y-92583000D01*
X141225000Y-92583000D01*
X141205000Y-92583000D01*
X141205000Y-92329000D01*
X141225000Y-92329000D01*
X141225000Y-91137269D01*
X141479000Y-91137269D01*
X141479000Y-92329000D01*
X143225000Y-92329000D01*
X143225000Y-91137269D01*
X143479000Y-91137269D01*
X143479000Y-92329000D01*
X143499000Y-92329000D01*
X143499000Y-92583000D01*
X143479000Y-92583000D01*
X143479000Y-93774731D01*
X143669609Y-93899462D01*
X143761376Y-93884286D01*
X144181125Y-93637933D01*
X144474647Y-93249701D01*
X144493532Y-93177154D01*
X144658328Y-93423789D01*
X144976588Y-93636443D01*
X145352000Y-93711117D01*
X145727412Y-93636443D01*
X146045672Y-93423789D01*
X146258326Y-93105529D01*
X146333000Y-92730117D01*
X146333000Y-92181883D01*
X146258326Y-91806471D01*
X146045672Y-91488211D01*
X145727412Y-91275557D01*
X145352000Y-91200883D01*
X144976588Y-91275557D01*
X144658328Y-91488211D01*
X144493532Y-91734846D01*
X144474647Y-91662299D01*
X144181125Y-91274067D01*
X143761376Y-91027714D01*
X143669609Y-91012538D01*
X143479000Y-91137269D01*
X143225000Y-91137269D01*
X143034391Y-91012538D01*
X142942624Y-91027714D01*
X142522875Y-91274067D01*
X142352000Y-91500078D01*
X142181125Y-91274067D01*
X141761376Y-91027714D01*
X141669609Y-91012538D01*
X141479000Y-91137269D01*
X141225000Y-91137269D01*
X141034391Y-91012538D01*
X140942624Y-91027714D01*
X140522875Y-91274067D01*
X140326804Y-91533404D01*
X140313897Y-91464810D01*
X140230454Y-91335135D01*
X140103134Y-91248141D01*
X139952000Y-91217536D01*
X138752000Y-91217536D01*
X138610810Y-91244103D01*
X138481135Y-91327546D01*
X138394141Y-91454866D01*
X138363536Y-91606000D01*
X129872607Y-91606000D01*
X129554834Y-90836931D01*
X128876639Y-90157551D01*
X127990081Y-89789420D01*
X127030130Y-89788583D01*
X126142931Y-90155166D01*
X125463551Y-90833361D01*
X125095420Y-91719919D01*
X125094583Y-92679870D01*
X124904500Y-92679870D01*
X124904500Y-89344500D01*
X190055500Y-89344500D01*
X190055500Y-96250551D01*
M02*
