%TF.GenerationSoftware,KiCad,Pcbnew,4.0.7-e2-6376~58~ubuntu16.04.1*%
%TF.CreationDate,2018-01-05T22:29:52-05:00*%
%TF.ProjectId,GarageFrontPanel,47617261676546726F6E7450616E656C,rev?*%
%TF.FileFunction,Soldermask,Bot*%
%FSLAX46Y46*%
G04 Gerber Fmt 4.6, Leading zero omitted, Abs format (unit mm)*
G04 Created by KiCad (PCBNEW 4.0.7-e2-6376~58~ubuntu16.04.1) date Fri Jan  5 22:29:52 2018*
%MOMM*%
%LPD*%
G01*
G04 APERTURE LIST*
%ADD10C,0.150000*%
%ADD11C,0.127000*%
%ADD12R,1.650000X0.700000*%
%ADD13R,1.300000X1.800000*%
%ADD14O,1.300000X1.800000*%
%ADD15C,4.164000*%
G04 APERTURE END LIST*
D10*
D11*
X139065000Y-104140000D02*
X175895000Y-104140000D01*
X190500000Y-96520000D02*
X190500000Y-88900000D01*
X175895000Y-104140000D02*
X190500000Y-96520000D01*
X124460000Y-96520000D02*
X139065000Y-104140000D01*
X124460000Y-88900000D02*
X124460000Y-96520000D01*
X190500000Y-88900000D02*
X124460000Y-88900000D01*
D12*
X155161000Y-99187000D03*
X155161000Y-97917000D03*
X155161000Y-96647000D03*
X155161000Y-95377000D03*
X160561000Y-95377000D03*
X160561000Y-96647000D03*
X160561000Y-97917000D03*
X160561000Y-99187000D03*
D13*
X166624000Y-92329000D03*
D14*
X168624000Y-92329000D03*
X170624000Y-92329000D03*
X172624000Y-92329000D03*
X174624000Y-92329000D03*
X176624000Y-92329000D03*
X178624000Y-92329000D03*
X180624000Y-92329000D03*
D13*
X143955000Y-99695000D03*
D14*
X145955000Y-99695000D03*
X147955000Y-99695000D03*
D13*
X169164000Y-99568000D03*
D14*
X171164000Y-99568000D03*
X173164000Y-99568000D03*
D13*
X139352000Y-92456000D03*
D14*
X141352000Y-92456000D03*
X143352000Y-92456000D03*
X145352000Y-92456000D03*
X147352000Y-92456000D03*
X149352000Y-92456000D03*
D15*
X187452000Y-92202000D03*
X127508000Y-92202000D03*
M02*
