%TF.GenerationSoftware,KiCad,Pcbnew,4.0.7-e2-6376~58~ubuntu16.04.1*%
%TF.CreationDate,2018-01-05T22:29:52-05:00*%
%TF.ProjectId,GarageFrontPanel,47617261676546726F6E7450616E656C,rev?*%
%TF.FileFunction,Copper,L2,Bot,Signal*%
%FSLAX46Y46*%
G04 Gerber Fmt 4.6, Leading zero omitted, Abs format (unit mm)*
G04 Created by KiCad (PCBNEW 4.0.7-e2-6376~58~ubuntu16.04.1) date Fri Jan  5 22:29:52 2018*
%MOMM*%
%LPD*%
G01*
G04 APERTURE LIST*
%ADD10C,0.150000*%
%ADD11C,0.127000*%
%ADD12R,1.550000X0.600000*%
%ADD13R,1.200000X1.700000*%
%ADD14O,1.200000X1.700000*%
%ADD15C,4.064000*%
%ADD16C,0.685800*%
%ADD17C,0.254000*%
G04 APERTURE END LIST*
D10*
D11*
X139065000Y-104140000D02*
X175895000Y-104140000D01*
X190500000Y-96520000D02*
X190500000Y-88900000D01*
X175895000Y-104140000D02*
X190500000Y-96520000D01*
X124460000Y-96520000D02*
X139065000Y-104140000D01*
X124460000Y-88900000D02*
X124460000Y-96520000D01*
X190500000Y-88900000D02*
X124460000Y-88900000D01*
D12*
X155161000Y-99187000D03*
X155161000Y-97917000D03*
X155161000Y-96647000D03*
X155161000Y-95377000D03*
X160561000Y-95377000D03*
X160561000Y-96647000D03*
X160561000Y-97917000D03*
X160561000Y-99187000D03*
D13*
X166624000Y-92329000D03*
D14*
X168624000Y-92329000D03*
X170624000Y-92329000D03*
X172624000Y-92329000D03*
X174624000Y-92329000D03*
X176624000Y-92329000D03*
X178624000Y-92329000D03*
X180624000Y-92329000D03*
D13*
X143955000Y-99695000D03*
D14*
X145955000Y-99695000D03*
X147955000Y-99695000D03*
D13*
X169164000Y-99568000D03*
D14*
X171164000Y-99568000D03*
X173164000Y-99568000D03*
D13*
X139352000Y-92456000D03*
D14*
X141352000Y-92456000D03*
X143352000Y-92456000D03*
X145352000Y-92456000D03*
X147352000Y-92456000D03*
X149352000Y-92456000D03*
D15*
X187452000Y-92202000D03*
X127508000Y-92202000D03*
D16*
X157099000Y-99187000D03*
X158399509Y-98401841D03*
X163449000Y-98425000D03*
X157412618Y-95436618D03*
X159639000Y-94234000D03*
X153035000Y-99695000D03*
D17*
X155161000Y-99187000D02*
X157099000Y-99187000D01*
X159184668Y-99187000D02*
X158742408Y-98744740D01*
X160561000Y-99187000D02*
X159184668Y-99187000D01*
X158742408Y-98744740D02*
X158399509Y-98401841D01*
X162306000Y-98298000D02*
X162179000Y-98425000D01*
X162179000Y-98425000D02*
X161417000Y-99187000D01*
X163449000Y-98425000D02*
X162964067Y-98425000D01*
X162964067Y-98425000D02*
X162179000Y-98425000D01*
X168624000Y-92329000D02*
X168624000Y-92079000D01*
X165100000Y-90551000D02*
X162306000Y-93345000D01*
X168624000Y-92079000D02*
X167096000Y-90551000D01*
X167096000Y-90551000D02*
X165100000Y-90551000D01*
X162306000Y-93345000D02*
X162306000Y-98298000D01*
X161417000Y-99187000D02*
X160561000Y-99187000D01*
X170624000Y-92329000D02*
X170624000Y-92579000D01*
X170624000Y-92579000D02*
X161603000Y-101600000D01*
X161603000Y-101600000D02*
X146304000Y-101600000D01*
X146304000Y-101600000D02*
X145955000Y-101251000D01*
X145955000Y-101251000D02*
X145955000Y-99695000D01*
X145955000Y-99945000D02*
X145955000Y-99695000D01*
X170624000Y-92329000D02*
X170624000Y-99028000D01*
X170624000Y-99028000D02*
X171164000Y-99568000D01*
X148809000Y-99695000D02*
X147955000Y-99695000D01*
X157406001Y-91097999D02*
X148809000Y-99695000D01*
X167306425Y-90042989D02*
X164127575Y-90042989D01*
X175642999Y-91097999D02*
X168361435Y-91097999D01*
X168361435Y-91097999D02*
X167306425Y-90042989D01*
X176624000Y-92329000D02*
X176624000Y-92079000D01*
X164127575Y-90042989D02*
X163072565Y-91097999D01*
X163072565Y-91097999D02*
X157406001Y-91097999D01*
X176624000Y-92079000D02*
X175642999Y-91097999D01*
X157353000Y-95377000D02*
X157412618Y-95436618D01*
X155161000Y-95377000D02*
X157353000Y-95377000D01*
X157226000Y-96647000D02*
X159639000Y-94234000D01*
X155161000Y-96647000D02*
X157226000Y-96647000D01*
X155161000Y-96647000D02*
X154686000Y-96647000D01*
X154686000Y-96647000D02*
X153035000Y-98298000D01*
X153035000Y-98298000D02*
X153035000Y-99695000D01*
G36*
X190055500Y-96250551D02*
X175786014Y-103695500D01*
X139173986Y-103695500D01*
X132054049Y-99980750D01*
X142720000Y-99980750D01*
X142720000Y-100671310D01*
X142816673Y-100904699D01*
X142995302Y-101083327D01*
X143228691Y-101180000D01*
X143669250Y-101180000D01*
X143828000Y-101021250D01*
X143828000Y-99822000D01*
X142878750Y-99822000D01*
X142720000Y-99980750D01*
X132054049Y-99980750D01*
X129635101Y-98718690D01*
X142720000Y-98718690D01*
X142720000Y-99409250D01*
X142878750Y-99568000D01*
X143828000Y-99568000D01*
X143828000Y-98368750D01*
X144082000Y-98368750D01*
X144082000Y-99568000D01*
X144102000Y-99568000D01*
X144102000Y-99822000D01*
X144082000Y-99822000D01*
X144082000Y-101021250D01*
X144240750Y-101180000D01*
X144681309Y-101180000D01*
X144914698Y-101083327D01*
X145093327Y-100904699D01*
X145190000Y-100671310D01*
X145190000Y-100556039D01*
X145261328Y-100662789D01*
X145447000Y-100786851D01*
X145447000Y-101251000D01*
X145485669Y-101445403D01*
X145595790Y-101610210D01*
X145944790Y-101959211D01*
X146109597Y-102069331D01*
X146304000Y-102108000D01*
X161603000Y-102108000D01*
X161797403Y-102069331D01*
X161962210Y-101959210D01*
X164067670Y-99853750D01*
X167929000Y-99853750D01*
X167929000Y-100544310D01*
X168025673Y-100777699D01*
X168204302Y-100956327D01*
X168437691Y-101053000D01*
X168878250Y-101053000D01*
X169037000Y-100894250D01*
X169037000Y-99695000D01*
X168087750Y-99695000D01*
X167929000Y-99853750D01*
X164067670Y-99853750D01*
X165329730Y-98591690D01*
X167929000Y-98591690D01*
X167929000Y-99282250D01*
X168087750Y-99441000D01*
X169037000Y-99441000D01*
X169037000Y-98241750D01*
X168878250Y-98083000D01*
X168437691Y-98083000D01*
X168204302Y-98179673D01*
X168025673Y-98358301D01*
X167929000Y-98591690D01*
X165329730Y-98591690D01*
X170116000Y-93805421D01*
X170116000Y-98176484D01*
X169890309Y-98083000D01*
X169449750Y-98083000D01*
X169291000Y-98241750D01*
X169291000Y-99441000D01*
X169311000Y-99441000D01*
X169311000Y-99695000D01*
X169291000Y-99695000D01*
X169291000Y-100894250D01*
X169449750Y-101053000D01*
X169890309Y-101053000D01*
X170123698Y-100956327D01*
X170302327Y-100777699D01*
X170399000Y-100544310D01*
X170399000Y-100429039D01*
X170470328Y-100535789D01*
X170788588Y-100748443D01*
X171164000Y-100823117D01*
X171539412Y-100748443D01*
X171857672Y-100535789D01*
X172070326Y-100217529D01*
X172145000Y-99842117D01*
X172145000Y-99293883D01*
X172183000Y-99293883D01*
X172183000Y-99842117D01*
X172257674Y-100217529D01*
X172470328Y-100535789D01*
X172788588Y-100748443D01*
X173164000Y-100823117D01*
X173539412Y-100748443D01*
X173857672Y-100535789D01*
X174070326Y-100217529D01*
X174145000Y-99842117D01*
X174145000Y-99293883D01*
X174070326Y-98918471D01*
X173857672Y-98600211D01*
X173539412Y-98387557D01*
X173164000Y-98312883D01*
X172788588Y-98387557D01*
X172470328Y-98600211D01*
X172257674Y-98918471D01*
X172183000Y-99293883D01*
X172145000Y-99293883D01*
X172070326Y-98918471D01*
X171857672Y-98600211D01*
X171539412Y-98387557D01*
X171164000Y-98312883D01*
X171132000Y-98319248D01*
X171132000Y-93420851D01*
X171317672Y-93296789D01*
X171530326Y-92978529D01*
X171605000Y-92603117D01*
X171605000Y-92054883D01*
X171530326Y-91679471D01*
X171481234Y-91605999D01*
X171766766Y-91605999D01*
X171717674Y-91679471D01*
X171643000Y-92054883D01*
X171643000Y-92603117D01*
X171717674Y-92978529D01*
X171930328Y-93296789D01*
X172248588Y-93509443D01*
X172624000Y-93584117D01*
X172999412Y-93509443D01*
X173317672Y-93296789D01*
X173530326Y-92978529D01*
X173605000Y-92603117D01*
X173605000Y-92054883D01*
X173530326Y-91679471D01*
X173481234Y-91605999D01*
X173766766Y-91605999D01*
X173717674Y-91679471D01*
X173643000Y-92054883D01*
X173643000Y-92603117D01*
X173717674Y-92978529D01*
X173930328Y-93296789D01*
X174248588Y-93509443D01*
X174624000Y-93584117D01*
X174999412Y-93509443D01*
X175317672Y-93296789D01*
X175530326Y-92978529D01*
X175605000Y-92603117D01*
X175605000Y-92054883D01*
X175536354Y-91709774D01*
X175682564Y-91855984D01*
X175643000Y-92054883D01*
X175643000Y-92603117D01*
X175717674Y-92978529D01*
X175930328Y-93296789D01*
X176248588Y-93509443D01*
X176624000Y-93584117D01*
X176999412Y-93509443D01*
X177317672Y-93296789D01*
X177530326Y-92978529D01*
X177605000Y-92603117D01*
X177605000Y-92054883D01*
X177643000Y-92054883D01*
X177643000Y-92603117D01*
X177717674Y-92978529D01*
X177930328Y-93296789D01*
X178248588Y-93509443D01*
X178624000Y-93584117D01*
X178999412Y-93509443D01*
X179317672Y-93296789D01*
X179530326Y-92978529D01*
X179605000Y-92603117D01*
X179605000Y-92054883D01*
X179643000Y-92054883D01*
X179643000Y-92603117D01*
X179717674Y-92978529D01*
X179930328Y-93296789D01*
X180248588Y-93509443D01*
X180624000Y-93584117D01*
X180999412Y-93509443D01*
X181317672Y-93296789D01*
X181530326Y-92978529D01*
X181589732Y-92679870D01*
X185038583Y-92679870D01*
X185405166Y-93567069D01*
X186083361Y-94246449D01*
X186969919Y-94614580D01*
X187929870Y-94615417D01*
X188817069Y-94248834D01*
X189496449Y-93570639D01*
X189864580Y-92684081D01*
X189865417Y-91724130D01*
X189498834Y-90836931D01*
X188820639Y-90157551D01*
X187934081Y-89789420D01*
X186974130Y-89788583D01*
X186086931Y-90155166D01*
X185407551Y-90833361D01*
X185039420Y-91719919D01*
X185038583Y-92679870D01*
X181589732Y-92679870D01*
X181605000Y-92603117D01*
X181605000Y-92054883D01*
X181530326Y-91679471D01*
X181317672Y-91361211D01*
X180999412Y-91148557D01*
X180624000Y-91073883D01*
X180248588Y-91148557D01*
X179930328Y-91361211D01*
X179717674Y-91679471D01*
X179643000Y-92054883D01*
X179605000Y-92054883D01*
X179530326Y-91679471D01*
X179317672Y-91361211D01*
X178999412Y-91148557D01*
X178624000Y-91073883D01*
X178248588Y-91148557D01*
X177930328Y-91361211D01*
X177717674Y-91679471D01*
X177643000Y-92054883D01*
X177605000Y-92054883D01*
X177530326Y-91679471D01*
X177317672Y-91361211D01*
X176999412Y-91148557D01*
X176624000Y-91073883D01*
X176384869Y-91121449D01*
X176002209Y-90738789D01*
X175837402Y-90628668D01*
X175642999Y-90589999D01*
X168571856Y-90589999D01*
X167665635Y-89683779D01*
X167500828Y-89573658D01*
X167306425Y-89534989D01*
X164127575Y-89534989D01*
X163933172Y-89573658D01*
X163933170Y-89573659D01*
X163933171Y-89573659D01*
X163768364Y-89683779D01*
X162862145Y-90589999D01*
X157406001Y-90589999D01*
X157243851Y-90622253D01*
X157211597Y-90628668D01*
X157046790Y-90738789D01*
X148812773Y-98972807D01*
X148648672Y-98727211D01*
X148330412Y-98514557D01*
X147955000Y-98439883D01*
X147579588Y-98514557D01*
X147261328Y-98727211D01*
X147048674Y-99045471D01*
X146974000Y-99420883D01*
X146974000Y-99969117D01*
X147048674Y-100344529D01*
X147261328Y-100662789D01*
X147579588Y-100875443D01*
X147955000Y-100950117D01*
X148330412Y-100875443D01*
X148648672Y-100662789D01*
X148861326Y-100344529D01*
X148892793Y-100186333D01*
X149003403Y-100164331D01*
X149168210Y-100054210D01*
X153997536Y-95224885D01*
X153997536Y-95677000D01*
X154024103Y-95818190D01*
X154107546Y-95947865D01*
X154202187Y-96012530D01*
X154115135Y-96068546D01*
X154028141Y-96195866D01*
X153997536Y-96347000D01*
X153997536Y-96617043D01*
X152675790Y-97938790D01*
X152565669Y-98103597D01*
X152527000Y-98298000D01*
X152527000Y-99179257D01*
X152421665Y-99284408D01*
X152311226Y-99550376D01*
X152310975Y-99838361D01*
X152420950Y-100104521D01*
X152624408Y-100308335D01*
X152890376Y-100418774D01*
X153178361Y-100419025D01*
X153444521Y-100309050D01*
X153648335Y-100105592D01*
X153758774Y-99839624D01*
X153759025Y-99551639D01*
X153649050Y-99285479D01*
X153543000Y-99179243D01*
X153543000Y-98508420D01*
X153751000Y-98300420D01*
X153751000Y-98343310D01*
X153847673Y-98576699D01*
X154024554Y-98753579D01*
X153997536Y-98887000D01*
X153997536Y-99487000D01*
X154024103Y-99628190D01*
X154107546Y-99757865D01*
X154234866Y-99844859D01*
X154386000Y-99875464D01*
X155936000Y-99875464D01*
X156077190Y-99848897D01*
X156206865Y-99765454D01*
X156255004Y-99695000D01*
X156583257Y-99695000D01*
X156688408Y-99800335D01*
X156954376Y-99910774D01*
X157242361Y-99911025D01*
X157508521Y-99801050D01*
X157712335Y-99597592D01*
X157822774Y-99331624D01*
X157823025Y-99043639D01*
X157713050Y-98777479D01*
X157509592Y-98573665D01*
X157243624Y-98463226D01*
X156955639Y-98462975D01*
X156689479Y-98572950D01*
X156583243Y-98679000D01*
X156372025Y-98679000D01*
X156474327Y-98576699D01*
X156571000Y-98343310D01*
X156571000Y-98202750D01*
X156412250Y-98044000D01*
X155288000Y-98044000D01*
X155288000Y-98064000D01*
X155034000Y-98064000D01*
X155034000Y-98044000D01*
X155014000Y-98044000D01*
X155014000Y-97790000D01*
X155034000Y-97790000D01*
X155034000Y-97770000D01*
X155288000Y-97770000D01*
X155288000Y-97790000D01*
X156412250Y-97790000D01*
X156571000Y-97631250D01*
X156571000Y-97490690D01*
X156474327Y-97257301D01*
X156372025Y-97155000D01*
X157226000Y-97155000D01*
X157420403Y-97116331D01*
X157585210Y-97006210D01*
X159397536Y-95193884D01*
X159397536Y-95677000D01*
X159424103Y-95818190D01*
X159507546Y-95947865D01*
X159602187Y-96012530D01*
X159515135Y-96068546D01*
X159428141Y-96195866D01*
X159397536Y-96347000D01*
X159397536Y-96947000D01*
X159424103Y-97088190D01*
X159507546Y-97217865D01*
X159602187Y-97282530D01*
X159515135Y-97338546D01*
X159428141Y-97465866D01*
X159397536Y-97617000D01*
X159397536Y-98217000D01*
X159424103Y-98358190D01*
X159507546Y-98487865D01*
X159602187Y-98552530D01*
X159515135Y-98608546D01*
X159466996Y-98679000D01*
X159395088Y-98679000D01*
X159123404Y-98407316D01*
X159123534Y-98258480D01*
X159013559Y-97992320D01*
X158810101Y-97788506D01*
X158544133Y-97678067D01*
X158256148Y-97677816D01*
X157989988Y-97787791D01*
X157786174Y-97991249D01*
X157675735Y-98257217D01*
X157675484Y-98545202D01*
X157785459Y-98811362D01*
X157988917Y-99015176D01*
X158254885Y-99125615D01*
X158404994Y-99125746D01*
X158825458Y-99546210D01*
X158990264Y-99656331D01*
X159184668Y-99695000D01*
X159467094Y-99695000D01*
X159507546Y-99757865D01*
X159634866Y-99844859D01*
X159786000Y-99875464D01*
X161336000Y-99875464D01*
X161477190Y-99848897D01*
X161606865Y-99765454D01*
X161693859Y-99638134D01*
X161702500Y-99595461D01*
X161776210Y-99546210D01*
X162389420Y-98933000D01*
X162933257Y-98933000D01*
X163038408Y-99038335D01*
X163304376Y-99148774D01*
X163335778Y-99148801D01*
X161392580Y-101092000D01*
X146514421Y-101092000D01*
X146463000Y-101040580D01*
X146463000Y-100786851D01*
X146648672Y-100662789D01*
X146861326Y-100344529D01*
X146936000Y-99969117D01*
X146936000Y-99420883D01*
X146861326Y-99045471D01*
X146648672Y-98727211D01*
X146330412Y-98514557D01*
X145955000Y-98439883D01*
X145579588Y-98514557D01*
X145261328Y-98727211D01*
X145190000Y-98833961D01*
X145190000Y-98718690D01*
X145093327Y-98485301D01*
X144914698Y-98306673D01*
X144681309Y-98210000D01*
X144240750Y-98210000D01*
X144082000Y-98368750D01*
X143828000Y-98368750D01*
X143669250Y-98210000D01*
X143228691Y-98210000D01*
X142995302Y-98306673D01*
X142816673Y-98485301D01*
X142720000Y-98718690D01*
X129635101Y-98718690D01*
X124904500Y-96250551D01*
X124904500Y-92679870D01*
X125094583Y-92679870D01*
X125461166Y-93567069D01*
X126139361Y-94246449D01*
X127025919Y-94614580D01*
X127985870Y-94615417D01*
X128873069Y-94248834D01*
X129552449Y-93570639D01*
X129920580Y-92684081D01*
X129921417Y-91724130D01*
X129872607Y-91606000D01*
X138363536Y-91606000D01*
X138363536Y-93306000D01*
X138390103Y-93447190D01*
X138473546Y-93576865D01*
X138600866Y-93663859D01*
X138752000Y-93694464D01*
X139952000Y-93694464D01*
X140093190Y-93667897D01*
X140222865Y-93584454D01*
X140309859Y-93457134D01*
X140325983Y-93377510D01*
X140522875Y-93637933D01*
X140942624Y-93884286D01*
X141034391Y-93899462D01*
X141225000Y-93774731D01*
X141225000Y-92583000D01*
X141479000Y-92583000D01*
X141479000Y-93774731D01*
X141669609Y-93899462D01*
X141761376Y-93884286D01*
X142181125Y-93637933D01*
X142352000Y-93411922D01*
X142522875Y-93637933D01*
X142942624Y-93884286D01*
X143034391Y-93899462D01*
X143225000Y-93774731D01*
X143225000Y-92583000D01*
X141479000Y-92583000D01*
X141225000Y-92583000D01*
X141205000Y-92583000D01*
X141205000Y-92329000D01*
X141225000Y-92329000D01*
X141225000Y-91137269D01*
X141479000Y-91137269D01*
X141479000Y-92329000D01*
X143225000Y-92329000D01*
X143225000Y-91137269D01*
X143479000Y-91137269D01*
X143479000Y-92329000D01*
X143499000Y-92329000D01*
X143499000Y-92583000D01*
X143479000Y-92583000D01*
X143479000Y-93774731D01*
X143669609Y-93899462D01*
X143761376Y-93884286D01*
X144181125Y-93637933D01*
X144474647Y-93249701D01*
X144493532Y-93177154D01*
X144658328Y-93423789D01*
X144976588Y-93636443D01*
X145352000Y-93711117D01*
X145727412Y-93636443D01*
X146045672Y-93423789D01*
X146258326Y-93105529D01*
X146333000Y-92730117D01*
X146333000Y-92181883D01*
X146371000Y-92181883D01*
X146371000Y-92730117D01*
X146445674Y-93105529D01*
X146658328Y-93423789D01*
X146976588Y-93636443D01*
X147352000Y-93711117D01*
X147727412Y-93636443D01*
X148045672Y-93423789D01*
X148258326Y-93105529D01*
X148333000Y-92730117D01*
X148333000Y-92181883D01*
X148371000Y-92181883D01*
X148371000Y-92730117D01*
X148445674Y-93105529D01*
X148658328Y-93423789D01*
X148976588Y-93636443D01*
X149352000Y-93711117D01*
X149727412Y-93636443D01*
X150045672Y-93423789D01*
X150258326Y-93105529D01*
X150333000Y-92730117D01*
X150333000Y-92181883D01*
X150258326Y-91806471D01*
X150045672Y-91488211D01*
X149727412Y-91275557D01*
X149352000Y-91200883D01*
X148976588Y-91275557D01*
X148658328Y-91488211D01*
X148445674Y-91806471D01*
X148371000Y-92181883D01*
X148333000Y-92181883D01*
X148258326Y-91806471D01*
X148045672Y-91488211D01*
X147727412Y-91275557D01*
X147352000Y-91200883D01*
X146976588Y-91275557D01*
X146658328Y-91488211D01*
X146445674Y-91806471D01*
X146371000Y-92181883D01*
X146333000Y-92181883D01*
X146258326Y-91806471D01*
X146045672Y-91488211D01*
X145727412Y-91275557D01*
X145352000Y-91200883D01*
X144976588Y-91275557D01*
X144658328Y-91488211D01*
X144493532Y-91734846D01*
X144474647Y-91662299D01*
X144181125Y-91274067D01*
X143761376Y-91027714D01*
X143669609Y-91012538D01*
X143479000Y-91137269D01*
X143225000Y-91137269D01*
X143034391Y-91012538D01*
X142942624Y-91027714D01*
X142522875Y-91274067D01*
X142352000Y-91500078D01*
X142181125Y-91274067D01*
X141761376Y-91027714D01*
X141669609Y-91012538D01*
X141479000Y-91137269D01*
X141225000Y-91137269D01*
X141034391Y-91012538D01*
X140942624Y-91027714D01*
X140522875Y-91274067D01*
X140326804Y-91533404D01*
X140313897Y-91464810D01*
X140230454Y-91335135D01*
X140103134Y-91248141D01*
X139952000Y-91217536D01*
X138752000Y-91217536D01*
X138610810Y-91244103D01*
X138481135Y-91327546D01*
X138394141Y-91454866D01*
X138363536Y-91606000D01*
X129872607Y-91606000D01*
X129554834Y-90836931D01*
X128876639Y-90157551D01*
X127990081Y-89789420D01*
X127030130Y-89788583D01*
X126142931Y-90155166D01*
X125463551Y-90833361D01*
X125095420Y-91719919D01*
X125094583Y-92679870D01*
X124904500Y-92679870D01*
X124904500Y-89344500D01*
X190055500Y-89344500D01*
X190055500Y-96250551D01*
X190055500Y-96250551D01*
G37*
X190055500Y-96250551D02*
X175786014Y-103695500D01*
X139173986Y-103695500D01*
X132054049Y-99980750D01*
X142720000Y-99980750D01*
X142720000Y-100671310D01*
X142816673Y-100904699D01*
X142995302Y-101083327D01*
X143228691Y-101180000D01*
X143669250Y-101180000D01*
X143828000Y-101021250D01*
X143828000Y-99822000D01*
X142878750Y-99822000D01*
X142720000Y-99980750D01*
X132054049Y-99980750D01*
X129635101Y-98718690D01*
X142720000Y-98718690D01*
X142720000Y-99409250D01*
X142878750Y-99568000D01*
X143828000Y-99568000D01*
X143828000Y-98368750D01*
X144082000Y-98368750D01*
X144082000Y-99568000D01*
X144102000Y-99568000D01*
X144102000Y-99822000D01*
X144082000Y-99822000D01*
X144082000Y-101021250D01*
X144240750Y-101180000D01*
X144681309Y-101180000D01*
X144914698Y-101083327D01*
X145093327Y-100904699D01*
X145190000Y-100671310D01*
X145190000Y-100556039D01*
X145261328Y-100662789D01*
X145447000Y-100786851D01*
X145447000Y-101251000D01*
X145485669Y-101445403D01*
X145595790Y-101610210D01*
X145944790Y-101959211D01*
X146109597Y-102069331D01*
X146304000Y-102108000D01*
X161603000Y-102108000D01*
X161797403Y-102069331D01*
X161962210Y-101959210D01*
X164067670Y-99853750D01*
X167929000Y-99853750D01*
X167929000Y-100544310D01*
X168025673Y-100777699D01*
X168204302Y-100956327D01*
X168437691Y-101053000D01*
X168878250Y-101053000D01*
X169037000Y-100894250D01*
X169037000Y-99695000D01*
X168087750Y-99695000D01*
X167929000Y-99853750D01*
X164067670Y-99853750D01*
X165329730Y-98591690D01*
X167929000Y-98591690D01*
X167929000Y-99282250D01*
X168087750Y-99441000D01*
X169037000Y-99441000D01*
X169037000Y-98241750D01*
X168878250Y-98083000D01*
X168437691Y-98083000D01*
X168204302Y-98179673D01*
X168025673Y-98358301D01*
X167929000Y-98591690D01*
X165329730Y-98591690D01*
X170116000Y-93805421D01*
X170116000Y-98176484D01*
X169890309Y-98083000D01*
X169449750Y-98083000D01*
X169291000Y-98241750D01*
X169291000Y-99441000D01*
X169311000Y-99441000D01*
X169311000Y-99695000D01*
X169291000Y-99695000D01*
X169291000Y-100894250D01*
X169449750Y-101053000D01*
X169890309Y-101053000D01*
X170123698Y-100956327D01*
X170302327Y-100777699D01*
X170399000Y-100544310D01*
X170399000Y-100429039D01*
X170470328Y-100535789D01*
X170788588Y-100748443D01*
X171164000Y-100823117D01*
X171539412Y-100748443D01*
X171857672Y-100535789D01*
X172070326Y-100217529D01*
X172145000Y-99842117D01*
X172145000Y-99293883D01*
X172183000Y-99293883D01*
X172183000Y-99842117D01*
X172257674Y-100217529D01*
X172470328Y-100535789D01*
X172788588Y-100748443D01*
X173164000Y-100823117D01*
X173539412Y-100748443D01*
X173857672Y-100535789D01*
X174070326Y-100217529D01*
X174145000Y-99842117D01*
X174145000Y-99293883D01*
X174070326Y-98918471D01*
X173857672Y-98600211D01*
X173539412Y-98387557D01*
X173164000Y-98312883D01*
X172788588Y-98387557D01*
X172470328Y-98600211D01*
X172257674Y-98918471D01*
X172183000Y-99293883D01*
X172145000Y-99293883D01*
X172070326Y-98918471D01*
X171857672Y-98600211D01*
X171539412Y-98387557D01*
X171164000Y-98312883D01*
X171132000Y-98319248D01*
X171132000Y-93420851D01*
X171317672Y-93296789D01*
X171530326Y-92978529D01*
X171605000Y-92603117D01*
X171605000Y-92054883D01*
X171530326Y-91679471D01*
X171481234Y-91605999D01*
X171766766Y-91605999D01*
X171717674Y-91679471D01*
X171643000Y-92054883D01*
X171643000Y-92603117D01*
X171717674Y-92978529D01*
X171930328Y-93296789D01*
X172248588Y-93509443D01*
X172624000Y-93584117D01*
X172999412Y-93509443D01*
X173317672Y-93296789D01*
X173530326Y-92978529D01*
X173605000Y-92603117D01*
X173605000Y-92054883D01*
X173530326Y-91679471D01*
X173481234Y-91605999D01*
X173766766Y-91605999D01*
X173717674Y-91679471D01*
X173643000Y-92054883D01*
X173643000Y-92603117D01*
X173717674Y-92978529D01*
X173930328Y-93296789D01*
X174248588Y-93509443D01*
X174624000Y-93584117D01*
X174999412Y-93509443D01*
X175317672Y-93296789D01*
X175530326Y-92978529D01*
X175605000Y-92603117D01*
X175605000Y-92054883D01*
X175536354Y-91709774D01*
X175682564Y-91855984D01*
X175643000Y-92054883D01*
X175643000Y-92603117D01*
X175717674Y-92978529D01*
X175930328Y-93296789D01*
X176248588Y-93509443D01*
X176624000Y-93584117D01*
X176999412Y-93509443D01*
X177317672Y-93296789D01*
X177530326Y-92978529D01*
X177605000Y-92603117D01*
X177605000Y-92054883D01*
X177643000Y-92054883D01*
X177643000Y-92603117D01*
X177717674Y-92978529D01*
X177930328Y-93296789D01*
X178248588Y-93509443D01*
X178624000Y-93584117D01*
X178999412Y-93509443D01*
X179317672Y-93296789D01*
X179530326Y-92978529D01*
X179605000Y-92603117D01*
X179605000Y-92054883D01*
X179643000Y-92054883D01*
X179643000Y-92603117D01*
X179717674Y-92978529D01*
X179930328Y-93296789D01*
X180248588Y-93509443D01*
X180624000Y-93584117D01*
X180999412Y-93509443D01*
X181317672Y-93296789D01*
X181530326Y-92978529D01*
X181589732Y-92679870D01*
X185038583Y-92679870D01*
X185405166Y-93567069D01*
X186083361Y-94246449D01*
X186969919Y-94614580D01*
X187929870Y-94615417D01*
X188817069Y-94248834D01*
X189496449Y-93570639D01*
X189864580Y-92684081D01*
X189865417Y-91724130D01*
X189498834Y-90836931D01*
X188820639Y-90157551D01*
X187934081Y-89789420D01*
X186974130Y-89788583D01*
X186086931Y-90155166D01*
X185407551Y-90833361D01*
X185039420Y-91719919D01*
X185038583Y-92679870D01*
X181589732Y-92679870D01*
X181605000Y-92603117D01*
X181605000Y-92054883D01*
X181530326Y-91679471D01*
X181317672Y-91361211D01*
X180999412Y-91148557D01*
X180624000Y-91073883D01*
X180248588Y-91148557D01*
X179930328Y-91361211D01*
X179717674Y-91679471D01*
X179643000Y-92054883D01*
X179605000Y-92054883D01*
X179530326Y-91679471D01*
X179317672Y-91361211D01*
X178999412Y-91148557D01*
X178624000Y-91073883D01*
X178248588Y-91148557D01*
X177930328Y-91361211D01*
X177717674Y-91679471D01*
X177643000Y-92054883D01*
X177605000Y-92054883D01*
X177530326Y-91679471D01*
X177317672Y-91361211D01*
X176999412Y-91148557D01*
X176624000Y-91073883D01*
X176384869Y-91121449D01*
X176002209Y-90738789D01*
X175837402Y-90628668D01*
X175642999Y-90589999D01*
X168571856Y-90589999D01*
X167665635Y-89683779D01*
X167500828Y-89573658D01*
X167306425Y-89534989D01*
X164127575Y-89534989D01*
X163933172Y-89573658D01*
X163933170Y-89573659D01*
X163933171Y-89573659D01*
X163768364Y-89683779D01*
X162862145Y-90589999D01*
X157406001Y-90589999D01*
X157243851Y-90622253D01*
X157211597Y-90628668D01*
X157046790Y-90738789D01*
X148812773Y-98972807D01*
X148648672Y-98727211D01*
X148330412Y-98514557D01*
X147955000Y-98439883D01*
X147579588Y-98514557D01*
X147261328Y-98727211D01*
X147048674Y-99045471D01*
X146974000Y-99420883D01*
X146974000Y-99969117D01*
X147048674Y-100344529D01*
X147261328Y-100662789D01*
X147579588Y-100875443D01*
X147955000Y-100950117D01*
X148330412Y-100875443D01*
X148648672Y-100662789D01*
X148861326Y-100344529D01*
X148892793Y-100186333D01*
X149003403Y-100164331D01*
X149168210Y-100054210D01*
X153997536Y-95224885D01*
X153997536Y-95677000D01*
X154024103Y-95818190D01*
X154107546Y-95947865D01*
X154202187Y-96012530D01*
X154115135Y-96068546D01*
X154028141Y-96195866D01*
X153997536Y-96347000D01*
X153997536Y-96617043D01*
X152675790Y-97938790D01*
X152565669Y-98103597D01*
X152527000Y-98298000D01*
X152527000Y-99179257D01*
X152421665Y-99284408D01*
X152311226Y-99550376D01*
X152310975Y-99838361D01*
X152420950Y-100104521D01*
X152624408Y-100308335D01*
X152890376Y-100418774D01*
X153178361Y-100419025D01*
X153444521Y-100309050D01*
X153648335Y-100105592D01*
X153758774Y-99839624D01*
X153759025Y-99551639D01*
X153649050Y-99285479D01*
X153543000Y-99179243D01*
X153543000Y-98508420D01*
X153751000Y-98300420D01*
X153751000Y-98343310D01*
X153847673Y-98576699D01*
X154024554Y-98753579D01*
X153997536Y-98887000D01*
X153997536Y-99487000D01*
X154024103Y-99628190D01*
X154107546Y-99757865D01*
X154234866Y-99844859D01*
X154386000Y-99875464D01*
X155936000Y-99875464D01*
X156077190Y-99848897D01*
X156206865Y-99765454D01*
X156255004Y-99695000D01*
X156583257Y-99695000D01*
X156688408Y-99800335D01*
X156954376Y-99910774D01*
X157242361Y-99911025D01*
X157508521Y-99801050D01*
X157712335Y-99597592D01*
X157822774Y-99331624D01*
X157823025Y-99043639D01*
X157713050Y-98777479D01*
X157509592Y-98573665D01*
X157243624Y-98463226D01*
X156955639Y-98462975D01*
X156689479Y-98572950D01*
X156583243Y-98679000D01*
X156372025Y-98679000D01*
X156474327Y-98576699D01*
X156571000Y-98343310D01*
X156571000Y-98202750D01*
X156412250Y-98044000D01*
X155288000Y-98044000D01*
X155288000Y-98064000D01*
X155034000Y-98064000D01*
X155034000Y-98044000D01*
X155014000Y-98044000D01*
X155014000Y-97790000D01*
X155034000Y-97790000D01*
X155034000Y-97770000D01*
X155288000Y-97770000D01*
X155288000Y-97790000D01*
X156412250Y-97790000D01*
X156571000Y-97631250D01*
X156571000Y-97490690D01*
X156474327Y-97257301D01*
X156372025Y-97155000D01*
X157226000Y-97155000D01*
X157420403Y-97116331D01*
X157585210Y-97006210D01*
X159397536Y-95193884D01*
X159397536Y-95677000D01*
X159424103Y-95818190D01*
X159507546Y-95947865D01*
X159602187Y-96012530D01*
X159515135Y-96068546D01*
X159428141Y-96195866D01*
X159397536Y-96347000D01*
X159397536Y-96947000D01*
X159424103Y-97088190D01*
X159507546Y-97217865D01*
X159602187Y-97282530D01*
X159515135Y-97338546D01*
X159428141Y-97465866D01*
X159397536Y-97617000D01*
X159397536Y-98217000D01*
X159424103Y-98358190D01*
X159507546Y-98487865D01*
X159602187Y-98552530D01*
X159515135Y-98608546D01*
X159466996Y-98679000D01*
X159395088Y-98679000D01*
X159123404Y-98407316D01*
X159123534Y-98258480D01*
X159013559Y-97992320D01*
X158810101Y-97788506D01*
X158544133Y-97678067D01*
X158256148Y-97677816D01*
X157989988Y-97787791D01*
X157786174Y-97991249D01*
X157675735Y-98257217D01*
X157675484Y-98545202D01*
X157785459Y-98811362D01*
X157988917Y-99015176D01*
X158254885Y-99125615D01*
X158404994Y-99125746D01*
X158825458Y-99546210D01*
X158990264Y-99656331D01*
X159184668Y-99695000D01*
X159467094Y-99695000D01*
X159507546Y-99757865D01*
X159634866Y-99844859D01*
X159786000Y-99875464D01*
X161336000Y-99875464D01*
X161477190Y-99848897D01*
X161606865Y-99765454D01*
X161693859Y-99638134D01*
X161702500Y-99595461D01*
X161776210Y-99546210D01*
X162389420Y-98933000D01*
X162933257Y-98933000D01*
X163038408Y-99038335D01*
X163304376Y-99148774D01*
X163335778Y-99148801D01*
X161392580Y-101092000D01*
X146514421Y-101092000D01*
X146463000Y-101040580D01*
X146463000Y-100786851D01*
X146648672Y-100662789D01*
X146861326Y-100344529D01*
X146936000Y-99969117D01*
X146936000Y-99420883D01*
X146861326Y-99045471D01*
X146648672Y-98727211D01*
X146330412Y-98514557D01*
X145955000Y-98439883D01*
X145579588Y-98514557D01*
X145261328Y-98727211D01*
X145190000Y-98833961D01*
X145190000Y-98718690D01*
X145093327Y-98485301D01*
X144914698Y-98306673D01*
X144681309Y-98210000D01*
X144240750Y-98210000D01*
X144082000Y-98368750D01*
X143828000Y-98368750D01*
X143669250Y-98210000D01*
X143228691Y-98210000D01*
X142995302Y-98306673D01*
X142816673Y-98485301D01*
X142720000Y-98718690D01*
X129635101Y-98718690D01*
X124904500Y-96250551D01*
X124904500Y-92679870D01*
X125094583Y-92679870D01*
X125461166Y-93567069D01*
X126139361Y-94246449D01*
X127025919Y-94614580D01*
X127985870Y-94615417D01*
X128873069Y-94248834D01*
X129552449Y-93570639D01*
X129920580Y-92684081D01*
X129921417Y-91724130D01*
X129872607Y-91606000D01*
X138363536Y-91606000D01*
X138363536Y-93306000D01*
X138390103Y-93447190D01*
X138473546Y-93576865D01*
X138600866Y-93663859D01*
X138752000Y-93694464D01*
X139952000Y-93694464D01*
X140093190Y-93667897D01*
X140222865Y-93584454D01*
X140309859Y-93457134D01*
X140325983Y-93377510D01*
X140522875Y-93637933D01*
X140942624Y-93884286D01*
X141034391Y-93899462D01*
X141225000Y-93774731D01*
X141225000Y-92583000D01*
X141479000Y-92583000D01*
X141479000Y-93774731D01*
X141669609Y-93899462D01*
X141761376Y-93884286D01*
X142181125Y-93637933D01*
X142352000Y-93411922D01*
X142522875Y-93637933D01*
X142942624Y-93884286D01*
X143034391Y-93899462D01*
X143225000Y-93774731D01*
X143225000Y-92583000D01*
X141479000Y-92583000D01*
X141225000Y-92583000D01*
X141205000Y-92583000D01*
X141205000Y-92329000D01*
X141225000Y-92329000D01*
X141225000Y-91137269D01*
X141479000Y-91137269D01*
X141479000Y-92329000D01*
X143225000Y-92329000D01*
X143225000Y-91137269D01*
X143479000Y-91137269D01*
X143479000Y-92329000D01*
X143499000Y-92329000D01*
X143499000Y-92583000D01*
X143479000Y-92583000D01*
X143479000Y-93774731D01*
X143669609Y-93899462D01*
X143761376Y-93884286D01*
X144181125Y-93637933D01*
X144474647Y-93249701D01*
X144493532Y-93177154D01*
X144658328Y-93423789D01*
X144976588Y-93636443D01*
X145352000Y-93711117D01*
X145727412Y-93636443D01*
X146045672Y-93423789D01*
X146258326Y-93105529D01*
X146333000Y-92730117D01*
X146333000Y-92181883D01*
X146371000Y-92181883D01*
X146371000Y-92730117D01*
X146445674Y-93105529D01*
X146658328Y-93423789D01*
X146976588Y-93636443D01*
X147352000Y-93711117D01*
X147727412Y-93636443D01*
X148045672Y-93423789D01*
X148258326Y-93105529D01*
X148333000Y-92730117D01*
X148333000Y-92181883D01*
X148371000Y-92181883D01*
X148371000Y-92730117D01*
X148445674Y-93105529D01*
X148658328Y-93423789D01*
X148976588Y-93636443D01*
X149352000Y-93711117D01*
X149727412Y-93636443D01*
X150045672Y-93423789D01*
X150258326Y-93105529D01*
X150333000Y-92730117D01*
X150333000Y-92181883D01*
X150258326Y-91806471D01*
X150045672Y-91488211D01*
X149727412Y-91275557D01*
X149352000Y-91200883D01*
X148976588Y-91275557D01*
X148658328Y-91488211D01*
X148445674Y-91806471D01*
X148371000Y-92181883D01*
X148333000Y-92181883D01*
X148258326Y-91806471D01*
X148045672Y-91488211D01*
X147727412Y-91275557D01*
X147352000Y-91200883D01*
X146976588Y-91275557D01*
X146658328Y-91488211D01*
X146445674Y-91806471D01*
X146371000Y-92181883D01*
X146333000Y-92181883D01*
X146258326Y-91806471D01*
X146045672Y-91488211D01*
X145727412Y-91275557D01*
X145352000Y-91200883D01*
X144976588Y-91275557D01*
X144658328Y-91488211D01*
X144493532Y-91734846D01*
X144474647Y-91662299D01*
X144181125Y-91274067D01*
X143761376Y-91027714D01*
X143669609Y-91012538D01*
X143479000Y-91137269D01*
X143225000Y-91137269D01*
X143034391Y-91012538D01*
X142942624Y-91027714D01*
X142522875Y-91274067D01*
X142352000Y-91500078D01*
X142181125Y-91274067D01*
X141761376Y-91027714D01*
X141669609Y-91012538D01*
X141479000Y-91137269D01*
X141225000Y-91137269D01*
X141034391Y-91012538D01*
X140942624Y-91027714D01*
X140522875Y-91274067D01*
X140326804Y-91533404D01*
X140313897Y-91464810D01*
X140230454Y-91335135D01*
X140103134Y-91248141D01*
X139952000Y-91217536D01*
X138752000Y-91217536D01*
X138610810Y-91244103D01*
X138481135Y-91327546D01*
X138394141Y-91454866D01*
X138363536Y-91606000D01*
X129872607Y-91606000D01*
X129554834Y-90836931D01*
X128876639Y-90157551D01*
X127990081Y-89789420D01*
X127030130Y-89788583D01*
X126142931Y-90155166D01*
X125463551Y-90833361D01*
X125095420Y-91719919D01*
X125094583Y-92679870D01*
X124904500Y-92679870D01*
X124904500Y-89344500D01*
X190055500Y-89344500D01*
X190055500Y-96250551D01*
G36*
X165485673Y-91119301D02*
X165389000Y-91352690D01*
X165389000Y-92043250D01*
X165547750Y-92202000D01*
X166497000Y-92202000D01*
X166497000Y-92182000D01*
X166751000Y-92182000D01*
X166751000Y-92202000D01*
X166771000Y-92202000D01*
X166771000Y-92456000D01*
X166751000Y-92456000D01*
X166751000Y-93655250D01*
X166909750Y-93814000D01*
X167350309Y-93814000D01*
X167583698Y-93717327D01*
X167762327Y-93538699D01*
X167859000Y-93305310D01*
X167859000Y-93190039D01*
X167930328Y-93296789D01*
X168248588Y-93509443D01*
X168624000Y-93584117D01*
X168969108Y-93515471D01*
X164172999Y-98311581D01*
X164173025Y-98281639D01*
X164063050Y-98015479D01*
X163859592Y-97811665D01*
X163593624Y-97701226D01*
X163305639Y-97700975D01*
X163039479Y-97810950D01*
X162933243Y-97917000D01*
X162814000Y-97917000D01*
X162814000Y-93555420D01*
X163754670Y-92614750D01*
X165389000Y-92614750D01*
X165389000Y-93305310D01*
X165485673Y-93538699D01*
X165664302Y-93717327D01*
X165897691Y-93814000D01*
X166338250Y-93814000D01*
X166497000Y-93655250D01*
X166497000Y-92456000D01*
X165547750Y-92456000D01*
X165389000Y-92614750D01*
X163754670Y-92614750D01*
X165310420Y-91059000D01*
X165545974Y-91059000D01*
X165485673Y-91119301D01*
X165485673Y-91119301D01*
G37*
X165485673Y-91119301D02*
X165389000Y-91352690D01*
X165389000Y-92043250D01*
X165547750Y-92202000D01*
X166497000Y-92202000D01*
X166497000Y-92182000D01*
X166751000Y-92182000D01*
X166751000Y-92202000D01*
X166771000Y-92202000D01*
X166771000Y-92456000D01*
X166751000Y-92456000D01*
X166751000Y-93655250D01*
X166909750Y-93814000D01*
X167350309Y-93814000D01*
X167583698Y-93717327D01*
X167762327Y-93538699D01*
X167859000Y-93305310D01*
X167859000Y-93190039D01*
X167930328Y-93296789D01*
X168248588Y-93509443D01*
X168624000Y-93584117D01*
X168969108Y-93515471D01*
X164172999Y-98311581D01*
X164173025Y-98281639D01*
X164063050Y-98015479D01*
X163859592Y-97811665D01*
X163593624Y-97701226D01*
X163305639Y-97700975D01*
X163039479Y-97810950D01*
X162933243Y-97917000D01*
X162814000Y-97917000D01*
X162814000Y-93555420D01*
X163754670Y-92614750D01*
X165389000Y-92614750D01*
X165389000Y-93305310D01*
X165485673Y-93538699D01*
X165664302Y-93717327D01*
X165897691Y-93814000D01*
X166338250Y-93814000D01*
X166497000Y-93655250D01*
X166497000Y-92456000D01*
X165547750Y-92456000D01*
X165389000Y-92614750D01*
X163754670Y-92614750D01*
X165310420Y-91059000D01*
X165545974Y-91059000D01*
X165485673Y-91119301D01*
M02*
